<svg xmlns="http://www.w3.org/2000/svg" xmlns:xlink="http://www.w3.org/1999/xlink" width="3000" zoomAndPan="magnify" viewBox="0 0 2250 2250.000011" height="3000" preserveAspectRatio="xMidYMid meet" version="1.2"><defs><clipPath id="c0f2c412f9"><path d="M 401 275 L 1588 275 L 1588 1532 L 401 1532 Z M 401 275 "/></clipPath><clipPath id="1111d4d0fe"><path d="M 254.28125 603.71875 L 1018.667969 102.898438 L 1795.988281 1289.296875 L 1031.601562 1790.117188 Z M 254.28125 603.71875 "/></clipPath><clipPath id="815731d5a4"><path d="M 254.28125 603.71875 L 1018.667969 102.898438 L 1795.988281 1289.296875 L 1031.601562 1790.117188 Z M 254.28125 603.71875 "/></clipPath><clipPath id="d111a15ec0"><path d="M 254.28125 603.71875 L 1018.667969 102.898438 L 1795.988281 1289.296875 L 1031.601562 1790.117188 Z M 254.28125 603.71875 "/></clipPath><clipPath id="c2119c8bd4"><path d="M 739 490 L 1588 490 L 1588 1532 L 739 1532 Z M 739 490 "/></clipPath><clipPath id="be10b7e6cd"><path d="M 254.28125 603.71875 L 1018.667969 102.898438 L 1795.988281 1289.296875 L 1031.601562 1790.117188 Z M 254.28125 603.71875 "/></clipPath><clipPath id="f17ec483be"><path d="M 254.28125 603.71875 L 1018.667969 102.898438 L 1795.988281 1289.296875 L 1031.601562 1790.117188 Z M 254.28125 603.71875 "/></clipPath><clipPath id="936809eec4"><path d="M 254.28125 603.71875 L 1018.667969 102.898438 L 1795.988281 1289.296875 L 1031.601562 1790.117188 Z M 254.28125 603.71875 "/></clipPath><clipPath id="457d2dbb6a"><path d="M 263.207031 608.019531 L 1022.679688 110.414062 L 1788.320312 1278.976562 L 1028.84375 1776.582031 Z M 263.207031 608.019531 "/></clipPath><clipPath id="230f516f68"><path d="M 1427.167969 1511.664062 C 1339.433594 1552.703125 1255.996094 1523.863281 1101.78125 1470.554688 C 994.859375 1433.597656 1013.695312 1416.476562 900.5625 1365.273438 C 894.28125 1362.4375 829.996094 1330.289062 823.265625 1296.171875 C 821.886719 1289.183594 822.175781 1281.707031 818.785156 1275.398438 C 812.3125 1263.339844 796.277344 1261.34375 785.039062 1253.617188 C 768.726562 1242.390625 762.894531 1218.96875 745.382812 1209.839844 C 735.6875 1204.78125 724.339844 1205.222656 713.726562 1202.988281 C 684.453125 1196.847656 661.175781 1167.425781 661.792969 1137.359375 C 662.144531 1120.636719 665.308594 1097.625 649.378906 1092.617188 C 644.40625 1091.054688 639.136719 1092.246094 634.027344 1092.917969 C 599.660156 1097.445312 562.921875 1074.75 550.710938 1041.429688 C 545.703125 1027.773438 544.476562 1012.90625 538.371094 999.695312 C 523.359375 967.222656 501.949219 911.867188 516.117188 909.917969 C 488.28125 863.582031 460.441406 817.265625 432.605469 770.929688 C 412.414062 737.316406 391.601562 696.359375 407.648438 661.527344 C 425.300781 623.210938 481.800781 608.691406 485.476562 566.226562 C 486.324219 556.507812 484.054688 546.257812 487.34375 537.148438 C 492.214844 523.652344 507.050781 517.605469 518.941406 509.855469 C 548.050781 490.875 563.070312 456.871094 579.953125 426.234375 C 596.839844 395.597656 620.5625 364.402344 655.082031 359.050781 C 662.960938 357.824219 671.273438 357.992188 678.457031 354.609375 C 688.515625 349.878906 694.214844 339.3125 701.464844 330.855469 C 715.921875 314.011719 738.617188 304.824219 760.9375 306.785156 C 781.007812 285.40625 821.816406 290.851562 837.003906 316.945312 C 874.152344 272.574219 944.878906 261.808594 995.265625 292.859375 C 1016.855469 306.167969 1034.5625 325.851562 1057.429688 336.644531 C 1080.296875 347.4375 1229.382812 435.257812 1245.136719 509.5 C 1247.949219 522.761719 1250.410156 537.214844 1260.175781 546.660156 C 1264.75 551.085938 1270.527344 553.953125 1276.066406 557.03125 C 1318.871094 580.753906 1352.53125 620.894531 1370.152344 666.839844 C 1384.042969 703.058594 1389.386719 744.429688 1415.898438 772.769531 C 1440.027344 798.566406 1478.050781 808.996094 1498.355469 837.945312 C 1528.542969 880.984375 1505.253906 941.308594 1522.929688 990.710938 C 1530.511719 1011.882812 1539.84375 1016.726562 1549.125 1042.738281 C 1561.484375 1077.375 1561.953125 1104.894531 1563.136719 1124.839844 C 1567.292969 1194.65625 1583.199219 1220.953125 1586.960938 1256.457031 C 1596.414062 1345.570312 1526.441406 1465.222656 1427.167969 1511.664062 Z M 1427.167969 1511.664062 "/></clipPath><clipPath id="b52b7abe8e"><path d="M 775 1042 L 1191 1042 L 1191 1108 L 775 1108 Z M 775 1042 "/></clipPath><clipPath id="625b13c32c"><path d="M 254.28125 603.71875 L 1018.667969 102.898438 L 1795.988281 1289.296875 L 1031.601562 1790.117188 Z M 254.28125 603.71875 "/></clipPath><clipPath id="ab514a0588"><path d="M 254.28125 603.71875 L 1018.667969 102.898438 L 1795.988281 1289.296875 L 1031.601562 1790.117188 Z M 254.28125 603.71875 "/></clipPath><clipPath id="bb8af2ea96"><path d="M 254.28125 603.71875 L 1018.667969 102.898438 L 1795.988281 1289.296875 L 1031.601562 1790.117188 Z M 254.28125 603.71875 "/></clipPath><clipPath id="863408fcd4"><path d="M 263.207031 608.019531 L 1022.679688 110.414062 L 1788.320312 1278.976562 L 1028.84375 1776.582031 Z M 263.207031 608.019531 "/></clipPath><clipPath id="dfc569686b"><path d="M 1427.167969 1511.664062 C 1339.433594 1552.703125 1255.996094 1523.863281 1101.78125 1470.554688 C 994.859375 1433.597656 1013.695312 1416.476562 900.5625 1365.273438 C 894.28125 1362.4375 829.996094 1330.289062 823.265625 1296.171875 C 821.886719 1289.183594 822.175781 1281.707031 818.785156 1275.398438 C 812.3125 1263.339844 796.277344 1261.34375 785.039062 1253.617188 C 768.726562 1242.390625 762.894531 1218.96875 745.382812 1209.839844 C 735.6875 1204.78125 724.339844 1205.222656 713.726562 1202.988281 C 684.453125 1196.847656 661.175781 1167.425781 661.792969 1137.359375 C 662.144531 1120.636719 665.308594 1097.625 649.378906 1092.617188 C 644.40625 1091.054688 639.136719 1092.246094 634.027344 1092.917969 C 599.660156 1097.445312 562.921875 1074.75 550.710938 1041.429688 C 545.703125 1027.773438 544.476562 1012.90625 538.371094 999.695312 C 523.359375 967.222656 501.949219 911.867188 516.117188 909.917969 C 488.28125 863.582031 460.441406 817.265625 432.605469 770.929688 C 412.414062 737.316406 391.601562 696.359375 407.648438 661.527344 C 425.300781 623.210938 481.800781 608.691406 485.476562 566.226562 C 486.324219 556.507812 484.054688 546.257812 487.34375 537.148438 C 492.214844 523.652344 507.050781 517.605469 518.941406 509.855469 C 548.050781 490.875 563.070312 456.871094 579.953125 426.234375 C 596.839844 395.597656 620.5625 364.402344 655.082031 359.050781 C 662.960938 357.824219 671.273438 357.992188 678.457031 354.609375 C 688.515625 349.878906 694.214844 339.3125 701.464844 330.855469 C 715.921875 314.011719 738.617188 304.824219 760.9375 306.785156 C 781.007812 285.40625 821.816406 290.851562 837.003906 316.945312 C 874.152344 272.574219 944.878906 261.808594 995.265625 292.859375 C 1016.855469 306.167969 1034.5625 325.851562 1057.429688 336.644531 C 1080.296875 347.4375 1229.382812 435.257812 1245.136719 509.5 C 1247.949219 522.761719 1250.410156 537.214844 1260.175781 546.660156 C 1264.75 551.085938 1270.527344 553.953125 1276.066406 557.03125 C 1318.871094 580.753906 1352.53125 620.894531 1370.152344 666.839844 C 1384.042969 703.058594 1389.386719 744.429688 1415.898438 772.769531 C 1440.027344 798.566406 1478.050781 808.996094 1498.355469 837.945312 C 1528.542969 880.984375 1505.253906 941.308594 1522.929688 990.710938 C 1530.511719 1011.882812 1539.84375 1016.726562 1549.125 1042.738281 C 1561.484375 1077.375 1561.953125 1104.894531 1563.136719 1124.839844 C 1567.292969 1194.65625 1583.199219 1220.953125 1586.960938 1256.457031 C 1596.414062 1345.570312 1526.441406 1465.222656 1427.167969 1511.664062 Z M 1427.167969 1511.664062 "/></clipPath><clipPath id="3440f4ad0d"><path d="M 1098 1368 L 1399 1368 L 1399 1427 L 1098 1427 Z M 1098 1368 "/></clipPath><clipPath id="0d2059b4c5"><path d="M 254.28125 603.71875 L 1018.667969 102.898438 L 1795.988281 1289.296875 L 1031.601562 1790.117188 Z M 254.28125 603.71875 "/></clipPath><clipPath id="960b130a39"><path d="M 254.28125 603.71875 L 1018.667969 102.898438 L 1795.988281 1289.296875 L 1031.601562 1790.117188 Z M 254.28125 603.71875 "/></clipPath><clipPath id="6c000c93c1"><path d="M 254.28125 603.71875 L 1018.667969 102.898438 L 1795.988281 1289.296875 L 1031.601562 1790.117188 Z M 254.28125 603.71875 "/></clipPath><clipPath id="0637efd774"><path d="M 263.207031 608.019531 L 1022.679688 110.414062 L 1788.320312 1278.976562 L 1028.84375 1776.582031 Z M 263.207031 608.019531 "/></clipPath><clipPath id="61a1f232b0"><path d="M 1427.167969 1511.664062 C 1339.433594 1552.703125 1255.996094 1523.863281 1101.78125 1470.554688 C 994.859375 1433.597656 1013.695312 1416.476562 900.5625 1365.273438 C 894.28125 1362.4375 829.996094 1330.289062 823.265625 1296.171875 C 821.886719 1289.183594 822.175781 1281.707031 818.785156 1275.398438 C 812.3125 1263.339844 796.277344 1261.34375 785.039062 1253.617188 C 768.726562 1242.390625 762.894531 1218.96875 745.382812 1209.839844 C 735.6875 1204.78125 724.339844 1205.222656 713.726562 1202.988281 C 684.453125 1196.847656 661.175781 1167.425781 661.792969 1137.359375 C 662.144531 1120.636719 665.308594 1097.625 649.378906 1092.617188 C 644.40625 1091.054688 639.136719 1092.246094 634.027344 1092.917969 C 599.660156 1097.445312 562.921875 1074.75 550.710938 1041.429688 C 545.703125 1027.773438 544.476562 1012.90625 538.371094 999.695312 C 523.359375 967.222656 501.949219 911.867188 516.117188 909.917969 C 488.28125 863.582031 460.441406 817.265625 432.605469 770.929688 C 412.414062 737.316406 391.601562 696.359375 407.648438 661.527344 C 425.300781 623.210938 481.800781 608.691406 485.476562 566.226562 C 486.324219 556.507812 484.054688 546.257812 487.34375 537.148438 C 492.214844 523.652344 507.050781 517.605469 518.941406 509.855469 C 548.050781 490.875 563.070312 456.871094 579.953125 426.234375 C 596.839844 395.597656 620.5625 364.402344 655.082031 359.050781 C 662.960938 357.824219 671.273438 357.992188 678.457031 354.609375 C 688.515625 349.878906 694.214844 339.3125 701.464844 330.855469 C 715.921875 314.011719 738.617188 304.824219 760.9375 306.785156 C 781.007812 285.40625 821.816406 290.851562 837.003906 316.945312 C 874.152344 272.574219 944.878906 261.808594 995.265625 292.859375 C 1016.855469 306.167969 1034.5625 325.851562 1057.429688 336.644531 C 1080.296875 347.4375 1229.382812 435.257812 1245.136719 509.5 C 1247.949219 522.761719 1250.410156 537.214844 1260.175781 546.660156 C 1264.75 551.085938 1270.527344 553.953125 1276.066406 557.03125 C 1318.871094 580.753906 1352.53125 620.894531 1370.152344 666.839844 C 1384.042969 703.058594 1389.386719 744.429688 1415.898438 772.769531 C 1440.027344 798.566406 1478.050781 808.996094 1498.355469 837.945312 C 1528.542969 880.984375 1505.253906 941.308594 1522.929688 990.710938 C 1530.511719 1011.882812 1539.84375 1016.726562 1549.125 1042.738281 C 1561.484375 1077.375 1561.953125 1104.894531 1563.136719 1124.839844 C 1567.292969 1194.65625 1583.199219 1220.953125 1586.960938 1256.457031 C 1596.414062 1345.570312 1526.441406 1465.222656 1427.167969 1511.664062 Z M 1427.167969 1511.664062 "/></clipPath><clipPath id="f4c53f0c0c"><path d="M 1378 854 L 1447 854 L 1447 1230 L 1378 1230 Z M 1378 854 "/></clipPath><clipPath id="e83b8f8fd8"><path d="M 254.28125 603.71875 L 1018.667969 102.898438 L 1795.988281 1289.296875 L 1031.601562 1790.117188 Z M 254.28125 603.71875 "/></clipPath><clipPath id="b94828e0c1"><path d="M 254.28125 603.71875 L 1018.667969 102.898438 L 1795.988281 1289.296875 L 1031.601562 1790.117188 Z M 254.28125 603.71875 "/></clipPath><clipPath id="3b4aa7ab5c"><path d="M 254.28125 603.71875 L 1018.667969 102.898438 L 1795.988281 1289.296875 L 1031.601562 1790.117188 Z M 254.28125 603.71875 "/></clipPath><clipPath id="15ee76c1e0"><path d="M 263.207031 608.019531 L 1022.679688 110.414062 L 1788.320312 1278.976562 L 1028.84375 1776.582031 Z M 263.207031 608.019531 "/></clipPath><clipPath id="27c7d484ab"><path d="M 1427.167969 1511.664062 C 1339.433594 1552.703125 1255.996094 1523.863281 1101.78125 1470.554688 C 994.859375 1433.597656 1013.695312 1416.476562 900.5625 1365.273438 C 894.28125 1362.4375 829.996094 1330.289062 823.265625 1296.171875 C 821.886719 1289.183594 822.175781 1281.707031 818.785156 1275.398438 C 812.3125 1263.339844 796.277344 1261.34375 785.039062 1253.617188 C 768.726562 1242.390625 762.894531 1218.96875 745.382812 1209.839844 C 735.6875 1204.78125 724.339844 1205.222656 713.726562 1202.988281 C 684.453125 1196.847656 661.175781 1167.425781 661.792969 1137.359375 C 662.144531 1120.636719 665.308594 1097.625 649.378906 1092.617188 C 644.40625 1091.054688 639.136719 1092.246094 634.027344 1092.917969 C 599.660156 1097.445312 562.921875 1074.75 550.710938 1041.429688 C 545.703125 1027.773438 544.476562 1012.90625 538.371094 999.695312 C 523.359375 967.222656 501.949219 911.867188 516.117188 909.917969 C 488.28125 863.582031 460.441406 817.265625 432.605469 770.929688 C 412.414062 737.316406 391.601562 696.359375 407.648438 661.527344 C 425.300781 623.210938 481.800781 608.691406 485.476562 566.226562 C 486.324219 556.507812 484.054688 546.257812 487.34375 537.148438 C 492.214844 523.652344 507.050781 517.605469 518.941406 509.855469 C 548.050781 490.875 563.070312 456.871094 579.953125 426.234375 C 596.839844 395.597656 620.5625 364.402344 655.082031 359.050781 C 662.960938 357.824219 671.273438 357.992188 678.457031 354.609375 C 688.515625 349.878906 694.214844 339.3125 701.464844 330.855469 C 715.921875 314.011719 738.617188 304.824219 760.9375 306.785156 C 781.007812 285.40625 821.816406 290.851562 837.003906 316.945312 C 874.152344 272.574219 944.878906 261.808594 995.265625 292.859375 C 1016.855469 306.167969 1034.5625 325.851562 1057.429688 336.644531 C 1080.296875 347.4375 1229.382812 435.257812 1245.136719 509.5 C 1247.949219 522.761719 1250.410156 537.214844 1260.175781 546.660156 C 1264.75 551.085938 1270.527344 553.953125 1276.066406 557.03125 C 1318.871094 580.753906 1352.53125 620.894531 1370.152344 666.839844 C 1384.042969 703.058594 1389.386719 744.429688 1415.898438 772.769531 C 1440.027344 798.566406 1478.050781 808.996094 1498.355469 837.945312 C 1528.542969 880.984375 1505.253906 941.308594 1522.929688 990.710938 C 1530.511719 1011.882812 1539.84375 1016.726562 1549.125 1042.738281 C 1561.484375 1077.375 1561.953125 1104.894531 1563.136719 1124.839844 C 1567.292969 1194.65625 1583.199219 1220.953125 1586.960938 1256.457031 C 1596.414062 1345.570312 1526.441406 1465.222656 1427.167969 1511.664062 Z M 1427.167969 1511.664062 "/></clipPath><clipPath id="b3149d691f"><path d="M 893 1201 L 1264 1201 L 1264 1275 L 893 1275 Z M 893 1201 "/></clipPath><clipPath id="6750532b95"><path d="M 254.28125 603.71875 L 1018.667969 102.898438 L 1795.988281 1289.296875 L 1031.601562 1790.117188 Z M 254.28125 603.71875 "/></clipPath><clipPath id="d706c0f4a5"><path d="M 254.28125 603.71875 L 1018.667969 102.898438 L 1795.988281 1289.296875 L 1031.601562 1790.117188 Z M 254.28125 603.71875 "/></clipPath><clipPath id="1bca1d3c16"><path d="M 254.28125 603.71875 L 1018.667969 102.898438 L 1795.988281 1289.296875 L 1031.601562 1790.117188 Z M 254.28125 603.71875 "/></clipPath><clipPath id="368f00dd5a"><path d="M 263.207031 608.019531 L 1022.679688 110.414062 L 1788.320312 1278.976562 L 1028.84375 1776.582031 Z M 263.207031 608.019531 "/></clipPath><clipPath id="1d7489374f"><path d="M 1427.167969 1511.664062 C 1339.433594 1552.703125 1255.996094 1523.863281 1101.78125 1470.554688 C 994.859375 1433.597656 1013.695312 1416.476562 900.5625 1365.273438 C 894.28125 1362.4375 829.996094 1330.289062 823.265625 1296.171875 C 821.886719 1289.183594 822.175781 1281.707031 818.785156 1275.398438 C 812.3125 1263.339844 796.277344 1261.34375 785.039062 1253.617188 C 768.726562 1242.390625 762.894531 1218.96875 745.382812 1209.839844 C 735.6875 1204.78125 724.339844 1205.222656 713.726562 1202.988281 C 684.453125 1196.847656 661.175781 1167.425781 661.792969 1137.359375 C 662.144531 1120.636719 665.308594 1097.625 649.378906 1092.617188 C 644.40625 1091.054688 639.136719 1092.246094 634.027344 1092.917969 C 599.660156 1097.445312 562.921875 1074.75 550.710938 1041.429688 C 545.703125 1027.773438 544.476562 1012.90625 538.371094 999.695312 C 523.359375 967.222656 501.949219 911.867188 516.117188 909.917969 C 488.28125 863.582031 460.441406 817.265625 432.605469 770.929688 C 412.414062 737.316406 391.601562 696.359375 407.648438 661.527344 C 425.300781 623.210938 481.800781 608.691406 485.476562 566.226562 C 486.324219 556.507812 484.054688 546.257812 487.34375 537.148438 C 492.214844 523.652344 507.050781 517.605469 518.941406 509.855469 C 548.050781 490.875 563.070312 456.871094 579.953125 426.234375 C 596.839844 395.597656 620.5625 364.402344 655.082031 359.050781 C 662.960938 357.824219 671.273438 357.992188 678.457031 354.609375 C 688.515625 349.878906 694.214844 339.3125 701.464844 330.855469 C 715.921875 314.011719 738.617188 304.824219 760.9375 306.785156 C 781.007812 285.40625 821.816406 290.851562 837.003906 316.945312 C 874.152344 272.574219 944.878906 261.808594 995.265625 292.859375 C 1016.855469 306.167969 1034.5625 325.851562 1057.429688 336.644531 C 1080.296875 347.4375 1229.382812 435.257812 1245.136719 509.5 C 1247.949219 522.761719 1250.410156 537.214844 1260.175781 546.660156 C 1264.75 551.085938 1270.527344 553.953125 1276.066406 557.03125 C 1318.871094 580.753906 1352.53125 620.894531 1370.152344 666.839844 C 1384.042969 703.058594 1389.386719 744.429688 1415.898438 772.769531 C 1440.027344 798.566406 1478.050781 808.996094 1498.355469 837.945312 C 1528.542969 880.984375 1505.253906 941.308594 1522.929688 990.710938 C 1530.511719 1011.882812 1539.84375 1016.726562 1549.125 1042.738281 C 1561.484375 1077.375 1561.953125 1104.894531 1563.136719 1124.839844 C 1567.292969 1194.65625 1583.199219 1220.953125 1586.960938 1256.457031 C 1596.414062 1345.570312 1526.441406 1465.222656 1427.167969 1511.664062 Z M 1427.167969 1511.664062 "/></clipPath><clipPath id="f177a39e55"><path d="M 1207 761 L 1304 761 L 1304 1034 L 1207 1034 Z M 1207 761 "/></clipPath><clipPath id="8f3c3d75f4"><path d="M 254.28125 603.71875 L 1018.667969 102.898438 L 1795.988281 1289.296875 L 1031.601562 1790.117188 Z M 254.28125 603.71875 "/></clipPath><clipPath id="20e9d98f13"><path d="M 254.28125 603.71875 L 1018.667969 102.898438 L 1795.988281 1289.296875 L 1031.601562 1790.117188 Z M 254.28125 603.71875 "/></clipPath><clipPath id="45e2b1362d"><path d="M 254.28125 603.71875 L 1018.667969 102.898438 L 1795.988281 1289.296875 L 1031.601562 1790.117188 Z M 254.28125 603.71875 "/></clipPath><clipPath id="7403faca46"><path d="M 263.207031 608.019531 L 1022.679688 110.414062 L 1788.320312 1278.976562 L 1028.84375 1776.582031 Z M 263.207031 608.019531 "/></clipPath><clipPath id="273d60bd9a"><path d="M 1427.167969 1511.664062 C 1339.433594 1552.703125 1255.996094 1523.863281 1101.78125 1470.554688 C 994.859375 1433.597656 1013.695312 1416.476562 900.5625 1365.273438 C 894.28125 1362.4375 829.996094 1330.289062 823.265625 1296.171875 C 821.886719 1289.183594 822.175781 1281.707031 818.785156 1275.398438 C 812.3125 1263.339844 796.277344 1261.34375 785.039062 1253.617188 C 768.726562 1242.390625 762.894531 1218.96875 745.382812 1209.839844 C 735.6875 1204.78125 724.339844 1205.222656 713.726562 1202.988281 C 684.453125 1196.847656 661.175781 1167.425781 661.792969 1137.359375 C 662.144531 1120.636719 665.308594 1097.625 649.378906 1092.617188 C 644.40625 1091.054688 639.136719 1092.246094 634.027344 1092.917969 C 599.660156 1097.445312 562.921875 1074.75 550.710938 1041.429688 C 545.703125 1027.773438 544.476562 1012.90625 538.371094 999.695312 C 523.359375 967.222656 501.949219 911.867188 516.117188 909.917969 C 488.28125 863.582031 460.441406 817.265625 432.605469 770.929688 C 412.414062 737.316406 391.601562 696.359375 407.648438 661.527344 C 425.300781 623.210938 481.800781 608.691406 485.476562 566.226562 C 486.324219 556.507812 484.054688 546.257812 487.34375 537.148438 C 492.214844 523.652344 507.050781 517.605469 518.941406 509.855469 C 548.050781 490.875 563.070312 456.871094 579.953125 426.234375 C 596.839844 395.597656 620.5625 364.402344 655.082031 359.050781 C 662.960938 357.824219 671.273438 357.992188 678.457031 354.609375 C 688.515625 349.878906 694.214844 339.3125 701.464844 330.855469 C 715.921875 314.011719 738.617188 304.824219 760.9375 306.785156 C 781.007812 285.40625 821.816406 290.851562 837.003906 316.945312 C 874.152344 272.574219 944.878906 261.808594 995.265625 292.859375 C 1016.855469 306.167969 1034.5625 325.851562 1057.429688 336.644531 C 1080.296875 347.4375 1229.382812 435.257812 1245.136719 509.5 C 1247.949219 522.761719 1250.410156 537.214844 1260.175781 546.660156 C 1264.75 551.085938 1270.527344 553.953125 1276.066406 557.03125 C 1318.871094 580.753906 1352.53125 620.894531 1370.152344 666.839844 C 1384.042969 703.058594 1389.386719 744.429688 1415.898438 772.769531 C 1440.027344 798.566406 1478.050781 808.996094 1498.355469 837.945312 C 1528.542969 880.984375 1505.253906 941.308594 1522.929688 990.710938 C 1530.511719 1011.882812 1539.84375 1016.726562 1549.125 1042.738281 C 1561.484375 1077.375 1561.953125 1104.894531 1563.136719 1124.839844 C 1567.292969 1194.65625 1583.199219 1220.953125 1586.960938 1256.457031 C 1596.414062 1345.570312 1526.441406 1465.222656 1427.167969 1511.664062 Z M 1427.167969 1511.664062 "/></clipPath><clipPath id="4f4039c034"><path d="M 701 902 L 1029 902 L 1029 999 L 701 999 Z M 701 902 "/></clipPath><clipPath id="ff69d87ecb"><path d="M 254.28125 603.71875 L 1018.667969 102.898438 L 1795.988281 1289.296875 L 1031.601562 1790.117188 Z M 254.28125 603.71875 "/></clipPath><clipPath id="98245ed104"><path d="M 254.28125 603.71875 L 1018.667969 102.898438 L 1795.988281 1289.296875 L 1031.601562 1790.117188 Z M 254.28125 603.71875 "/></clipPath><clipPath id="6b060a3fc4"><path d="M 254.28125 603.71875 L 1018.667969 102.898438 L 1795.988281 1289.296875 L 1031.601562 1790.117188 Z M 254.28125 603.71875 "/></clipPath><clipPath id="397ab061f3"><path d="M 263.207031 608.019531 L 1022.679688 110.414062 L 1788.320312 1278.976562 L 1028.84375 1776.582031 Z M 263.207031 608.019531 "/></clipPath><clipPath id="eb8e014818"><path d="M 1427.167969 1511.664062 C 1339.433594 1552.703125 1255.996094 1523.863281 1101.78125 1470.554688 C 994.859375 1433.597656 1013.695312 1416.476562 900.5625 1365.273438 C 894.28125 1362.4375 829.996094 1330.289062 823.265625 1296.171875 C 821.886719 1289.183594 822.175781 1281.707031 818.785156 1275.398438 C 812.3125 1263.339844 796.277344 1261.34375 785.039062 1253.617188 C 768.726562 1242.390625 762.894531 1218.96875 745.382812 1209.839844 C 735.6875 1204.78125 724.339844 1205.222656 713.726562 1202.988281 C 684.453125 1196.847656 661.175781 1167.425781 661.792969 1137.359375 C 662.144531 1120.636719 665.308594 1097.625 649.378906 1092.617188 C 644.40625 1091.054688 639.136719 1092.246094 634.027344 1092.917969 C 599.660156 1097.445312 562.921875 1074.75 550.710938 1041.429688 C 545.703125 1027.773438 544.476562 1012.90625 538.371094 999.695312 C 523.359375 967.222656 501.949219 911.867188 516.117188 909.917969 C 488.28125 863.582031 460.441406 817.265625 432.605469 770.929688 C 412.414062 737.316406 391.601562 696.359375 407.648438 661.527344 C 425.300781 623.210938 481.800781 608.691406 485.476562 566.226562 C 486.324219 556.507812 484.054688 546.257812 487.34375 537.148438 C 492.214844 523.652344 507.050781 517.605469 518.941406 509.855469 C 548.050781 490.875 563.070312 456.871094 579.953125 426.234375 C 596.839844 395.597656 620.5625 364.402344 655.082031 359.050781 C 662.960938 357.824219 671.273438 357.992188 678.457031 354.609375 C 688.515625 349.878906 694.214844 339.3125 701.464844 330.855469 C 715.921875 314.011719 738.617188 304.824219 760.9375 306.785156 C 781.007812 285.40625 821.816406 290.851562 837.003906 316.945312 C 874.152344 272.574219 944.878906 261.808594 995.265625 292.859375 C 1016.855469 306.167969 1034.5625 325.851562 1057.429688 336.644531 C 1080.296875 347.4375 1229.382812 435.257812 1245.136719 509.5 C 1247.949219 522.761719 1250.410156 537.214844 1260.175781 546.660156 C 1264.75 551.085938 1270.527344 553.953125 1276.066406 557.03125 C 1318.871094 580.753906 1352.53125 620.894531 1370.152344 666.839844 C 1384.042969 703.058594 1389.386719 744.429688 1415.898438 772.769531 C 1440.027344 798.566406 1478.050781 808.996094 1498.355469 837.945312 C 1528.542969 880.984375 1505.253906 941.308594 1522.929688 990.710938 C 1530.511719 1011.882812 1539.84375 1016.726562 1549.125 1042.738281 C 1561.484375 1077.375 1561.953125 1104.894531 1563.136719 1124.839844 C 1567.292969 1194.65625 1583.199219 1220.953125 1586.960938 1256.457031 C 1596.414062 1345.570312 1526.441406 1465.222656 1427.167969 1511.664062 Z M 1427.167969 1511.664062 "/></clipPath><clipPath id="c51f20c2c2"><path d="M 1108 582 L 1219 582 L 1219 944 L 1108 944 Z M 1108 582 "/></clipPath><clipPath id="612072b698"><path d="M 254.28125 603.71875 L 1018.667969 102.898438 L 1795.988281 1289.296875 L 1031.601562 1790.117188 Z M 254.28125 603.71875 "/></clipPath><clipPath id="55306c60fe"><path d="M 254.28125 603.71875 L 1018.667969 102.898438 L 1795.988281 1289.296875 L 1031.601562 1790.117188 Z M 254.28125 603.71875 "/></clipPath><clipPath id="c8db6c4cdc"><path d="M 254.28125 603.71875 L 1018.667969 102.898438 L 1795.988281 1289.296875 L 1031.601562 1790.117188 Z M 254.28125 603.71875 "/></clipPath><clipPath id="164bd8df69"><path d="M 263.207031 608.019531 L 1022.679688 110.414062 L 1788.320312 1278.976562 L 1028.84375 1776.582031 Z M 263.207031 608.019531 "/></clipPath><clipPath id="e1b8106d60"><path d="M 1427.167969 1511.664062 C 1339.433594 1552.703125 1255.996094 1523.863281 1101.78125 1470.554688 C 994.859375 1433.597656 1013.695312 1416.476562 900.5625 1365.273438 C 894.28125 1362.4375 829.996094 1330.289062 823.265625 1296.171875 C 821.886719 1289.183594 822.175781 1281.707031 818.785156 1275.398438 C 812.3125 1263.339844 796.277344 1261.34375 785.039062 1253.617188 C 768.726562 1242.390625 762.894531 1218.96875 745.382812 1209.839844 C 735.6875 1204.78125 724.339844 1205.222656 713.726562 1202.988281 C 684.453125 1196.847656 661.175781 1167.425781 661.792969 1137.359375 C 662.144531 1120.636719 665.308594 1097.625 649.378906 1092.617188 C 644.40625 1091.054688 639.136719 1092.246094 634.027344 1092.917969 C 599.660156 1097.445312 562.921875 1074.75 550.710938 1041.429688 C 545.703125 1027.773438 544.476562 1012.90625 538.371094 999.695312 C 523.359375 967.222656 501.949219 911.867188 516.117188 909.917969 C 488.28125 863.582031 460.441406 817.265625 432.605469 770.929688 C 412.414062 737.316406 391.601562 696.359375 407.648438 661.527344 C 425.300781 623.210938 481.800781 608.691406 485.476562 566.226562 C 486.324219 556.507812 484.054688 546.257812 487.34375 537.148438 C 492.214844 523.652344 507.050781 517.605469 518.941406 509.855469 C 548.050781 490.875 563.070312 456.871094 579.953125 426.234375 C 596.839844 395.597656 620.5625 364.402344 655.082031 359.050781 C 662.960938 357.824219 671.273438 357.992188 678.457031 354.609375 C 688.515625 349.878906 694.214844 339.3125 701.464844 330.855469 C 715.921875 314.011719 738.617188 304.824219 760.9375 306.785156 C 781.007812 285.40625 821.816406 290.851562 837.003906 316.945312 C 874.152344 272.574219 944.878906 261.808594 995.265625 292.859375 C 1016.855469 306.167969 1034.5625 325.851562 1057.429688 336.644531 C 1080.296875 347.4375 1229.382812 435.257812 1245.136719 509.5 C 1247.949219 522.761719 1250.410156 537.214844 1260.175781 546.660156 C 1264.75 551.085938 1270.527344 553.953125 1276.066406 557.03125 C 1318.871094 580.753906 1352.53125 620.894531 1370.152344 666.839844 C 1384.042969 703.058594 1389.386719 744.429688 1415.898438 772.769531 C 1440.027344 798.566406 1478.050781 808.996094 1498.355469 837.945312 C 1528.542969 880.984375 1505.253906 941.308594 1522.929688 990.710938 C 1530.511719 1011.882812 1539.84375 1016.726562 1549.125 1042.738281 C 1561.484375 1077.375 1561.953125 1104.894531 1563.136719 1124.839844 C 1567.292969 1194.65625 1583.199219 1220.953125 1586.960938 1256.457031 C 1596.414062 1345.570312 1526.441406 1465.222656 1427.167969 1511.664062 Z M 1427.167969 1511.664062 "/></clipPath><clipPath id="49a46cef89"><path d="M 971 528 L 1077 528 L 1077 789 L 971 789 Z M 971 528 "/></clipPath><clipPath id="c6e5e9a1ec"><path d="M 254.28125 603.71875 L 1018.667969 102.898438 L 1795.988281 1289.296875 L 1031.601562 1790.117188 Z M 254.28125 603.71875 "/></clipPath><clipPath id="685163d50d"><path d="M 254.28125 603.71875 L 1018.667969 102.898438 L 1795.988281 1289.296875 L 1031.601562 1790.117188 Z M 254.28125 603.71875 "/></clipPath><clipPath id="402a42c722"><path d="M 254.28125 603.71875 L 1018.667969 102.898438 L 1795.988281 1289.296875 L 1031.601562 1790.117188 Z M 254.28125 603.71875 "/></clipPath><clipPath id="8fed649c06"><path d="M 263.207031 608.019531 L 1022.679688 110.414062 L 1788.320312 1278.976562 L 1028.84375 1776.582031 Z M 263.207031 608.019531 "/></clipPath><clipPath id="dd14059238"><path d="M 1427.167969 1511.664062 C 1339.433594 1552.703125 1255.996094 1523.863281 1101.78125 1470.554688 C 994.859375 1433.597656 1013.695312 1416.476562 900.5625 1365.273438 C 894.28125 1362.4375 829.996094 1330.289062 823.265625 1296.171875 C 821.886719 1289.183594 822.175781 1281.707031 818.785156 1275.398438 C 812.3125 1263.339844 796.277344 1261.34375 785.039062 1253.617188 C 768.726562 1242.390625 762.894531 1218.96875 745.382812 1209.839844 C 735.6875 1204.78125 724.339844 1205.222656 713.726562 1202.988281 C 684.453125 1196.847656 661.175781 1167.425781 661.792969 1137.359375 C 662.144531 1120.636719 665.308594 1097.625 649.378906 1092.617188 C 644.40625 1091.054688 639.136719 1092.246094 634.027344 1092.917969 C 599.660156 1097.445312 562.921875 1074.75 550.710938 1041.429688 C 545.703125 1027.773438 544.476562 1012.90625 538.371094 999.695312 C 523.359375 967.222656 501.949219 911.867188 516.117188 909.917969 C 488.28125 863.582031 460.441406 817.265625 432.605469 770.929688 C 412.414062 737.316406 391.601562 696.359375 407.648438 661.527344 C 425.300781 623.210938 481.800781 608.691406 485.476562 566.226562 C 486.324219 556.507812 484.054688 546.257812 487.34375 537.148438 C 492.214844 523.652344 507.050781 517.605469 518.941406 509.855469 C 548.050781 490.875 563.070312 456.871094 579.953125 426.234375 C 596.839844 395.597656 620.5625 364.402344 655.082031 359.050781 C 662.960938 357.824219 671.273438 357.992188 678.457031 354.609375 C 688.515625 349.878906 694.214844 339.3125 701.464844 330.855469 C 715.921875 314.011719 738.617188 304.824219 760.9375 306.785156 C 781.007812 285.40625 821.816406 290.851562 837.003906 316.945312 C 874.152344 272.574219 944.878906 261.808594 995.265625 292.859375 C 1016.855469 306.167969 1034.5625 325.851562 1057.429688 336.644531 C 1080.296875 347.4375 1229.382812 435.257812 1245.136719 509.5 C 1247.949219 522.761719 1250.410156 537.214844 1260.175781 546.660156 C 1264.75 551.085938 1270.527344 553.953125 1276.066406 557.03125 C 1318.871094 580.753906 1352.53125 620.894531 1370.152344 666.839844 C 1384.042969 703.058594 1389.386719 744.429688 1415.898438 772.769531 C 1440.027344 798.566406 1478.050781 808.996094 1498.355469 837.945312 C 1528.542969 880.984375 1505.253906 941.308594 1522.929688 990.710938 C 1530.511719 1011.882812 1539.84375 1016.726562 1549.125 1042.738281 C 1561.484375 1077.375 1561.953125 1104.894531 1563.136719 1124.839844 C 1567.292969 1194.65625 1583.199219 1220.953125 1586.960938 1256.457031 C 1596.414062 1345.570312 1526.441406 1465.222656 1427.167969 1511.664062 Z M 1427.167969 1511.664062 "/></clipPath><clipPath id="a73e68df41"><path d="M 713 773 L 1017 773 L 1017 839 L 713 839 Z M 713 773 "/></clipPath><clipPath id="c42f96dc4d"><path d="M 254.28125 603.71875 L 1018.667969 102.898438 L 1795.988281 1289.296875 L 1031.601562 1790.117188 Z M 254.28125 603.71875 "/></clipPath><clipPath id="abe52291b2"><path d="M 254.28125 603.71875 L 1018.667969 102.898438 L 1795.988281 1289.296875 L 1031.601562 1790.117188 Z M 254.28125 603.71875 "/></clipPath><clipPath id="27d3c51d9c"><path d="M 254.28125 603.71875 L 1018.667969 102.898438 L 1795.988281 1289.296875 L 1031.601562 1790.117188 Z M 254.28125 603.71875 "/></clipPath><clipPath id="832c49d07c"><path d="M 263.207031 608.019531 L 1022.679688 110.414062 L 1788.320312 1278.976562 L 1028.84375 1776.582031 Z M 263.207031 608.019531 "/></clipPath><clipPath id="0ef0eee024"><path d="M 1427.167969 1511.664062 C 1339.433594 1552.703125 1255.996094 1523.863281 1101.78125 1470.554688 C 994.859375 1433.597656 1013.695312 1416.476562 900.5625 1365.273438 C 894.28125 1362.4375 829.996094 1330.289062 823.265625 1296.171875 C 821.886719 1289.183594 822.175781 1281.707031 818.785156 1275.398438 C 812.3125 1263.339844 796.277344 1261.34375 785.039062 1253.617188 C 768.726562 1242.390625 762.894531 1218.96875 745.382812 1209.839844 C 735.6875 1204.78125 724.339844 1205.222656 713.726562 1202.988281 C 684.453125 1196.847656 661.175781 1167.425781 661.792969 1137.359375 C 662.144531 1120.636719 665.308594 1097.625 649.378906 1092.617188 C 644.40625 1091.054688 639.136719 1092.246094 634.027344 1092.917969 C 599.660156 1097.445312 562.921875 1074.75 550.710938 1041.429688 C 545.703125 1027.773438 544.476562 1012.90625 538.371094 999.695312 C 523.359375 967.222656 501.949219 911.867188 516.117188 909.917969 C 488.28125 863.582031 460.441406 817.265625 432.605469 770.929688 C 412.414062 737.316406 391.601562 696.359375 407.648438 661.527344 C 425.300781 623.210938 481.800781 608.691406 485.476562 566.226562 C 486.324219 556.507812 484.054688 546.257812 487.34375 537.148438 C 492.214844 523.652344 507.050781 517.605469 518.941406 509.855469 C 548.050781 490.875 563.070312 456.871094 579.953125 426.234375 C 596.839844 395.597656 620.5625 364.402344 655.082031 359.050781 C 662.960938 357.824219 671.273438 357.992188 678.457031 354.609375 C 688.515625 349.878906 694.214844 339.3125 701.464844 330.855469 C 715.921875 314.011719 738.617188 304.824219 760.9375 306.785156 C 781.007812 285.40625 821.816406 290.851562 837.003906 316.945312 C 874.152344 272.574219 944.878906 261.808594 995.265625 292.859375 C 1016.855469 306.167969 1034.5625 325.851562 1057.429688 336.644531 C 1080.296875 347.4375 1229.382812 435.257812 1245.136719 509.5 C 1247.949219 522.761719 1250.410156 537.214844 1260.175781 546.660156 C 1264.75 551.085938 1270.527344 553.953125 1276.066406 557.03125 C 1318.871094 580.753906 1352.53125 620.894531 1370.152344 666.839844 C 1384.042969 703.058594 1389.386719 744.429688 1415.898438 772.769531 C 1440.027344 798.566406 1478.050781 808.996094 1498.355469 837.945312 C 1528.542969 880.984375 1505.253906 941.308594 1522.929688 990.710938 C 1530.511719 1011.882812 1539.84375 1016.726562 1549.125 1042.738281 C 1561.484375 1077.375 1561.953125 1104.894531 1563.136719 1124.839844 C 1567.292969 1194.65625 1583.199219 1220.953125 1586.960938 1256.457031 C 1596.414062 1345.570312 1526.441406 1465.222656 1427.167969 1511.664062 Z M 1427.167969 1511.664062 "/></clipPath><clipPath id="b3522ee90d"><path d="M 810 504 L 858 504 L 858 630 L 810 630 Z M 810 504 "/></clipPath><clipPath id="a0a7230952"><path d="M 254.28125 603.71875 L 1018.667969 102.898438 L 1795.988281 1289.296875 L 1031.601562 1790.117188 Z M 254.28125 603.71875 "/></clipPath><clipPath id="b114f1dbbf"><path d="M 254.28125 603.71875 L 1018.667969 102.898438 L 1795.988281 1289.296875 L 1031.601562 1790.117188 Z M 254.28125 603.71875 "/></clipPath><clipPath id="796bb9356f"><path d="M 254.28125 603.71875 L 1018.667969 102.898438 L 1795.988281 1289.296875 L 1031.601562 1790.117188 Z M 254.28125 603.71875 "/></clipPath><clipPath id="abddbe564a"><path d="M 263.207031 608.019531 L 1022.679688 110.414062 L 1788.320312 1278.976562 L 1028.84375 1776.582031 Z M 263.207031 608.019531 "/></clipPath><clipPath id="115cb3822f"><path d="M 1427.167969 1511.664062 C 1339.433594 1552.703125 1255.996094 1523.863281 1101.78125 1470.554688 C 994.859375 1433.597656 1013.695312 1416.476562 900.5625 1365.273438 C 894.28125 1362.4375 829.996094 1330.289062 823.265625 1296.171875 C 821.886719 1289.183594 822.175781 1281.707031 818.785156 1275.398438 C 812.3125 1263.339844 796.277344 1261.34375 785.039062 1253.617188 C 768.726562 1242.390625 762.894531 1218.96875 745.382812 1209.839844 C 735.6875 1204.78125 724.339844 1205.222656 713.726562 1202.988281 C 684.453125 1196.847656 661.175781 1167.425781 661.792969 1137.359375 C 662.144531 1120.636719 665.308594 1097.625 649.378906 1092.617188 C 644.40625 1091.054688 639.136719 1092.246094 634.027344 1092.917969 C 599.660156 1097.445312 562.921875 1074.75 550.710938 1041.429688 C 545.703125 1027.773438 544.476562 1012.90625 538.371094 999.695312 C 523.359375 967.222656 501.949219 911.867188 516.117188 909.917969 C 488.28125 863.582031 460.441406 817.265625 432.605469 770.929688 C 412.414062 737.316406 391.601562 696.359375 407.648438 661.527344 C 425.300781 623.210938 481.800781 608.691406 485.476562 566.226562 C 486.324219 556.507812 484.054688 546.257812 487.34375 537.148438 C 492.214844 523.652344 507.050781 517.605469 518.941406 509.855469 C 548.050781 490.875 563.070312 456.871094 579.953125 426.234375 C 596.839844 395.597656 620.5625 364.402344 655.082031 359.050781 C 662.960938 357.824219 671.273438 357.992188 678.457031 354.609375 C 688.515625 349.878906 694.214844 339.3125 701.464844 330.855469 C 715.921875 314.011719 738.617188 304.824219 760.9375 306.785156 C 781.007812 285.40625 821.816406 290.851562 837.003906 316.945312 C 874.152344 272.574219 944.878906 261.808594 995.265625 292.859375 C 1016.855469 306.167969 1034.5625 325.851562 1057.429688 336.644531 C 1080.296875 347.4375 1229.382812 435.257812 1245.136719 509.5 C 1247.949219 522.761719 1250.410156 537.214844 1260.175781 546.660156 C 1264.75 551.085938 1270.527344 553.953125 1276.066406 557.03125 C 1318.871094 580.753906 1352.53125 620.894531 1370.152344 666.839844 C 1384.042969 703.058594 1389.386719 744.429688 1415.898438 772.769531 C 1440.027344 798.566406 1478.050781 808.996094 1498.355469 837.945312 C 1528.542969 880.984375 1505.253906 941.308594 1522.929688 990.710938 C 1530.511719 1011.882812 1539.84375 1016.726562 1549.125 1042.738281 C 1561.484375 1077.375 1561.953125 1104.894531 1563.136719 1124.839844 C 1567.292969 1194.65625 1583.199219 1220.953125 1586.960938 1256.457031 C 1596.414062 1345.570312 1526.441406 1465.222656 1427.167969 1511.664062 Z M 1427.167969 1511.664062 "/></clipPath><clipPath id="0833649801"><path d="M 743 529 L 947 529 L 947 722 L 743 722 Z M 743 529 "/></clipPath><clipPath id="a28352a7f0"><path d="M 254.28125 603.71875 L 1018.667969 102.898438 L 1795.988281 1289.296875 L 1031.601562 1790.117188 Z M 254.28125 603.71875 "/></clipPath><clipPath id="eb31e59798"><path d="M 254.28125 603.71875 L 1018.667969 102.898438 L 1795.988281 1289.296875 L 1031.601562 1790.117188 Z M 254.28125 603.71875 "/></clipPath><clipPath id="ce2174391e"><path d="M 254.28125 603.71875 L 1018.667969 102.898438 L 1795.988281 1289.296875 L 1031.601562 1790.117188 Z M 254.28125 603.71875 "/></clipPath><clipPath id="5ebfa038b6"><path d="M 263.207031 608.019531 L 1022.679688 110.414062 L 1788.320312 1278.976562 L 1028.84375 1776.582031 Z M 263.207031 608.019531 "/></clipPath><clipPath id="0a0e7b720b"><path d="M 1427.167969 1511.664062 C 1339.433594 1552.703125 1255.996094 1523.863281 1101.78125 1470.554688 C 994.859375 1433.597656 1013.695312 1416.476562 900.5625 1365.273438 C 894.28125 1362.4375 829.996094 1330.289062 823.265625 1296.171875 C 821.886719 1289.183594 822.175781 1281.707031 818.785156 1275.398438 C 812.3125 1263.339844 796.277344 1261.34375 785.039062 1253.617188 C 768.726562 1242.390625 762.894531 1218.96875 745.382812 1209.839844 C 735.6875 1204.78125 724.339844 1205.222656 713.726562 1202.988281 C 684.453125 1196.847656 661.175781 1167.425781 661.792969 1137.359375 C 662.144531 1120.636719 665.308594 1097.625 649.378906 1092.617188 C 644.40625 1091.054688 639.136719 1092.246094 634.027344 1092.917969 C 599.660156 1097.445312 562.921875 1074.75 550.710938 1041.429688 C 545.703125 1027.773438 544.476562 1012.90625 538.371094 999.695312 C 523.359375 967.222656 501.949219 911.867188 516.117188 909.917969 C 488.28125 863.582031 460.441406 817.265625 432.605469 770.929688 C 412.414062 737.316406 391.601562 696.359375 407.648438 661.527344 C 425.300781 623.210938 481.800781 608.691406 485.476562 566.226562 C 486.324219 556.507812 484.054688 546.257812 487.34375 537.148438 C 492.214844 523.652344 507.050781 517.605469 518.941406 509.855469 C 548.050781 490.875 563.070312 456.871094 579.953125 426.234375 C 596.839844 395.597656 620.5625 364.402344 655.082031 359.050781 C 662.960938 357.824219 671.273438 357.992188 678.457031 354.609375 C 688.515625 349.878906 694.214844 339.3125 701.464844 330.855469 C 715.921875 314.011719 738.617188 304.824219 760.9375 306.785156 C 781.007812 285.40625 821.816406 290.851562 837.003906 316.945312 C 874.152344 272.574219 944.878906 261.808594 995.265625 292.859375 C 1016.855469 306.167969 1034.5625 325.851562 1057.429688 336.644531 C 1080.296875 347.4375 1229.382812 435.257812 1245.136719 509.5 C 1247.949219 522.761719 1250.410156 537.214844 1260.175781 546.660156 C 1264.75 551.085938 1270.527344 553.953125 1276.066406 557.03125 C 1318.871094 580.753906 1352.53125 620.894531 1370.152344 666.839844 C 1384.042969 703.058594 1389.386719 744.429688 1415.898438 772.769531 C 1440.027344 798.566406 1478.050781 808.996094 1498.355469 837.945312 C 1528.542969 880.984375 1505.253906 941.308594 1522.929688 990.710938 C 1530.511719 1011.882812 1539.84375 1016.726562 1549.125 1042.738281 C 1561.484375 1077.375 1561.953125 1104.894531 1563.136719 1124.839844 C 1567.292969 1194.65625 1583.199219 1220.953125 1586.960938 1256.457031 C 1596.414062 1345.570312 1526.441406 1465.222656 1427.167969 1511.664062 Z M 1427.167969 1511.664062 "/></clipPath><clipPath id="d6ced36b83"><path d="M 904 930 L 985 930 L 985 1011 L 904 1011 Z M 904 930 "/></clipPath><clipPath id="2da80457d7"><path d="M 254.28125 603.71875 L 1018.667969 102.898438 L 1795.988281 1289.296875 L 1031.601562 1790.117188 Z M 254.28125 603.71875 "/></clipPath><clipPath id="fcb2dbed3b"><path d="M 254.28125 603.71875 L 1018.667969 102.898438 L 1795.988281 1289.296875 L 1031.601562 1790.117188 Z M 254.28125 603.71875 "/></clipPath><clipPath id="9941cbf2fd"><path d="M 254.28125 603.71875 L 1018.667969 102.898438 L 1795.988281 1289.296875 L 1031.601562 1790.117188 Z M 254.28125 603.71875 "/></clipPath><clipPath id="041ee9ab9f"><path d="M 1110 745 L 1191 745 L 1191 826 L 1110 826 Z M 1110 745 "/></clipPath><clipPath id="464bb2555e"><path d="M 254.28125 603.71875 L 1018.667969 102.898438 L 1795.988281 1289.296875 L 1031.601562 1790.117188 Z M 254.28125 603.71875 "/></clipPath><clipPath id="3d22eba8ea"><path d="M 254.28125 603.71875 L 1018.667969 102.898438 L 1795.988281 1289.296875 L 1031.601562 1790.117188 Z M 254.28125 603.71875 "/></clipPath><clipPath id="cfcf1e29bf"><path d="M 254.28125 603.71875 L 1018.667969 102.898438 L 1795.988281 1289.296875 L 1031.601562 1790.117188 Z M 254.28125 603.71875 "/></clipPath><clipPath id="e2883ad2b7"><path d="M 1031 857 L 1116 857 L 1116 939 L 1031 939 Z M 1031 857 "/></clipPath><clipPath id="e4d6f23ba5"><path d="M 254.28125 603.71875 L 1018.667969 102.898438 L 1795.988281 1289.296875 L 1031.601562 1790.117188 Z M 254.28125 603.71875 "/></clipPath><clipPath id="84c644b601"><path d="M 254.28125 603.71875 L 1018.667969 102.898438 L 1795.988281 1289.296875 L 1031.601562 1790.117188 Z M 254.28125 603.71875 "/></clipPath><clipPath id="045538c572"><path d="M 254.28125 603.71875 L 1018.667969 102.898438 L 1795.988281 1289.296875 L 1031.601562 1790.117188 Z M 254.28125 603.71875 "/></clipPath><clipPath id="811f4acc4d"><path d="M 1193 758 L 1284 758 L 1284 844 L 1193 844 Z M 1193 758 "/></clipPath><clipPath id="b6f84f4cd4"><path d="M 254.28125 603.71875 L 1018.667969 102.898438 L 1795.988281 1289.296875 L 1031.601562 1790.117188 Z M 254.28125 603.71875 "/></clipPath><clipPath id="426bb189de"><path d="M 254.28125 603.71875 L 1018.667969 102.898438 L 1795.988281 1289.296875 L 1031.601562 1790.117188 Z M 254.28125 603.71875 "/></clipPath><clipPath id="c9126868e7"><path d="M 254.28125 603.71875 L 1018.667969 102.898438 L 1795.988281 1289.296875 L 1031.601562 1790.117188 Z M 254.28125 603.71875 "/></clipPath><clipPath id="f1b6a91800"><path d="M 900 1021 L 991 1021 L 991 1107 L 900 1107 Z M 900 1021 "/></clipPath><clipPath id="abb47e0866"><path d="M 254.28125 603.71875 L 1018.667969 102.898438 L 1795.988281 1289.296875 L 1031.601562 1790.117188 Z M 254.28125 603.71875 "/></clipPath><clipPath id="1bd2e572d5"><path d="M 254.28125 603.71875 L 1018.667969 102.898438 L 1795.988281 1289.296875 L 1031.601562 1790.117188 Z M 254.28125 603.71875 "/></clipPath><clipPath id="161ddf3314"><path d="M 254.28125 603.71875 L 1018.667969 102.898438 L 1795.988281 1289.296875 L 1031.601562 1790.117188 Z M 254.28125 603.71875 "/></clipPath></defs><g id="5a69b35979"><g clip-rule="nonzero" clip-path="url(#c0f2c412f9)"><g clip-rule="nonzero" clip-path="url(#1111d4d0fe)"><g clip-rule="nonzero" clip-path="url(#815731d5a4)"><g clip-rule="nonzero" clip-path="url(#d111a15ec0)"><path style=" stroke:none;fill-rule:nonzero;fill:#bee776;fill-opacity:1;" d="M 1427.167969 1511.664062 C 1339.433594 1552.703125 1255.996094 1523.863281 1101.78125 1470.554688 C 994.859375 1433.597656 1013.695312 1416.476562 900.5625 1365.273438 C 894.28125 1362.4375 829.996094 1330.289062 823.265625 1296.171875 C 821.886719 1289.183594 822.175781 1281.707031 818.785156 1275.398438 C 812.3125 1263.339844 796.277344 1261.34375 785.039062 1253.617188 C 768.726562 1242.390625 762.894531 1218.96875 745.382812 1209.839844 C 735.6875 1204.78125 724.339844 1205.222656 713.726562 1202.988281 C 684.453125 1196.847656 661.175781 1167.425781 661.792969 1137.359375 C 662.144531 1120.636719 665.308594 1097.625 649.378906 1092.617188 C 644.40625 1091.054688 639.136719 1092.246094 634.027344 1092.917969 C 599.660156 1097.445312 562.921875 1074.75 550.710938 1041.429688 C 545.703125 1027.773438 544.476562 1012.90625 538.371094 999.695312 C 523.359375 967.222656 501.949219 911.867188 516.117188 909.917969 C 488.28125 863.582031 460.441406 817.265625 432.605469 770.929688 C 412.414062 737.316406 391.601562 696.359375 407.648438 661.527344 C 425.300781 623.210938 481.800781 608.691406 485.476562 566.226562 C 486.324219 556.507812 484.054688 546.257812 487.34375 537.148438 C 492.214844 523.652344 507.050781 517.605469 518.941406 509.855469 C 548.050781 490.875 563.070312 456.871094 579.953125 426.234375 C 596.839844 395.597656 620.5625 364.402344 655.082031 359.050781 C 662.960938 357.824219 671.273438 357.992188 678.457031 354.609375 C 688.515625 349.878906 694.214844 339.3125 701.464844 330.855469 C 715.921875 314.011719 738.617188 304.824219 760.9375 306.785156 C 781.007812 285.40625 821.816406 290.851562 837.003906 316.945312 C 874.152344 272.574219 944.878906 261.808594 995.265625 292.859375 C 1016.855469 306.167969 1034.5625 325.851562 1057.429688 336.644531 C 1080.296875 347.4375 1229.382812 435.257812 1245.136719 509.5 C 1247.949219 522.761719 1250.410156 537.214844 1260.175781 546.660156 C 1264.75 551.085938 1270.527344 553.953125 1276.066406 557.03125 C 1318.871094 580.753906 1352.53125 620.894531 1370.152344 666.839844 C 1384.042969 703.058594 1389.386719 744.429688 1415.898438 772.769531 C 1440.027344 798.566406 1478.050781 808.996094 1498.355469 837.945312 C 1528.542969 880.984375 1505.253906 941.308594 1522.929688 990.710938 C 1530.511719 1011.882812 1539.84375 1016.726562 1549.125 1042.738281 C 1561.484375 1077.375 1561.953125 1104.894531 1563.136719 1124.839844 C 1567.292969 1194.65625 1583.199219 1220.953125 1586.960938 1256.457031 C 1596.414062 1345.570312 1526.441406 1465.222656 1427.167969 1511.664062 Z M 1427.167969 1511.664062 "/></g></g></g></g><g clip-rule="nonzero" clip-path="url(#c2119c8bd4)"><g clip-rule="nonzero" clip-path="url(#be10b7e6cd)"><g clip-rule="nonzero" clip-path="url(#f17ec483be)"><g clip-rule="nonzero" clip-path="url(#936809eec4)"><g clip-rule="nonzero" clip-path="url(#457d2dbb6a)"><g clip-rule="nonzero" clip-path="url(#230f516f68)"><path style=" stroke:none;fill-rule:nonzero;fill:#e6ffa9;fill-opacity:1;" d="M 1337.8125 1535.023438 C 1319.21875 1461.03125 1284.890625 1390.1875 1250.871094 1320.191406 C 1234.875 1287.261719 1218.796875 1254.210938 1198.945312 1223.300781 C 1181.105469 1195.515625 1160.378906 1169.75 1140.042969 1143.8125 C 1072 1057.0625 1006.320312 965.414062 967.621094 863.210938 C 958.359375 838.757812 950.710938 813.847656 940.265625 789.773438 C 928.988281 763.792969 914.570312 739.070312 899.679688 714.773438 C 851.652344 636.449219 797.972656 561.488281 739.441406 490.980469 C 806.269531 552.558594 873.097656 614.117188 939.921875 675.695312 C 1016.59375 746.324219 1093.339844 817.050781 1165.914062 892.703125 C 1223.269531 952.503906 1278.230469 1015.574219 1340.933594 1068.414062 C 1369.8125 1092.75 1400.449219 1115.023438 1425.828125 1143.679688 C 1445.390625 1165.761719 1461.285156 1191.050781 1477.046875 1216.144531 C 1516.246094 1278.570312 1555.878906 1341.859375 1580.625 1410.378906 C 1601.316406 1467.695312 1580.886719 1535.167969 1549.1875 1576.527344 C 1540.179688 1588.277344 1529.203125 1599.003906 1514.816406 1602.5 C 1504.800781 1604.929688 1493.816406 1603.703125 1483.050781 1602.453125 C 1467.4375 1600.648438 1451.832031 1598.835938 1436.21875 1597.027344 C 1415.90625 1594.675781 1395.097656 1592.179688 1375.589844 1582.488281 C 1356.082031 1572.796875 1343.285156 1556.8125 1337.8125 1535.023438 Z M 1337.8125 1535.023438 "/></g></g></g></g></g></g><g clip-rule="nonzero" clip-path="url(#b52b7abe8e)"><g clip-rule="nonzero" clip-path="url(#625b13c32c)"><g clip-rule="nonzero" clip-path="url(#ab514a0588)"><g clip-rule="nonzero" clip-path="url(#bb8af2ea96)"><g clip-rule="nonzero" clip-path="url(#863408fcd4)"><g clip-rule="nonzero" clip-path="url(#dfc569686b)"><path style=" stroke:none;fill-rule:nonzero;fill:#e6ffa9;fill-opacity:1;" d="M 1190.164062 1077.433594 C 1051.496094 1092.515625 913.148438 1102.417969 775.542969 1107.101562 C 906.953125 1085.421875 1038.363281 1063.722656 1169.773438 1042.042969 "/></g></g></g></g></g></g><g clip-rule="nonzero" clip-path="url(#3440f4ad0d)"><g clip-rule="nonzero" clip-path="url(#0d2059b4c5)"><g clip-rule="nonzero" clip-path="url(#960b130a39)"><g clip-rule="nonzero" clip-path="url(#6c000c93c1)"><g clip-rule="nonzero" clip-path="url(#0637efd774)"><g clip-rule="nonzero" clip-path="url(#61a1f232b0)"><path style=" stroke:none;fill-rule:nonzero;fill:#e6ffa9;fill-opacity:1;" d="M 1349.261719 1426.765625 C 1265.558594 1407.207031 1181.871094 1387.652344 1098.167969 1368.097656 C 1198.28125 1374.625 1298.394531 1381.15625 1398.5 1387.691406 "/></g></g></g></g></g></g><g clip-rule="nonzero" clip-path="url(#f4c53f0c0c)"><g clip-rule="nonzero" clip-path="url(#e83b8f8fd8)"><g clip-rule="nonzero" clip-path="url(#b94828e0c1)"><g clip-rule="nonzero" clip-path="url(#3b4aa7ab5c)"><g clip-rule="nonzero" clip-path="url(#15ee76c1e0)"><g clip-rule="nonzero" clip-path="url(#27c7d484ab)"><path style=" stroke:none;fill-rule:nonzero;fill:#e6ffa9;fill-opacity:1;" d="M 1378.300781 1149.042969 C 1390.289062 1050.726562 1402.277344 952.417969 1414.273438 854.097656 C 1442.230469 981.613281 1452.050781 1108.941406 1443.210938 1229.460938 "/></g></g></g></g></g></g><g clip-rule="nonzero" clip-path="url(#b3149d691f)"><g clip-rule="nonzero" clip-path="url(#6750532b95)"><g clip-rule="nonzero" clip-path="url(#d706c0f4a5)"><g clip-rule="nonzero" clip-path="url(#1bca1d3c16)"><g clip-rule="nonzero" clip-path="url(#368f00dd5a)"><g clip-rule="nonzero" clip-path="url(#1d7489374f)"><path style=" stroke:none;fill-rule:nonzero;fill:#e6ffa9;fill-opacity:1;" d="M 1190.332031 1201.285156 C 1091.285156 1202.335938 992.242188 1203.394531 893.207031 1204.441406 C 1016.855469 1246.316406 1142.324219 1270.132812 1263.09375 1274.660156 "/></g></g></g></g></g></g><g clip-rule="nonzero" clip-path="url(#f177a39e55)"><g clip-rule="nonzero" clip-path="url(#8f3c3d75f4)"><g clip-rule="nonzero" clip-path="url(#20e9d98f13)"><g clip-rule="nonzero" clip-path="url(#45e2b1362d)"><g clip-rule="nonzero" clip-path="url(#7403faca46)"><g clip-rule="nonzero" clip-path="url(#273d60bd9a)"><path style=" stroke:none;fill-rule:nonzero;fill:#e6ffa9;fill-opacity:1;" d="M 1207.214844 1027.660156 C 1239.339844 938.816406 1271.476562 849.964844 1303.601562 761.121094 C 1295.246094 851.976562 1286.894531 942.84375 1278.539062 1033.703125 "/></g></g></g></g></g></g><g clip-rule="nonzero" clip-path="url(#4f4039c034)"><g clip-rule="nonzero" clip-path="url(#ff69d87ecb)"><g clip-rule="nonzero" clip-path="url(#98245ed104)"><g clip-rule="nonzero" clip-path="url(#6b060a3fc4)"><g clip-rule="nonzero" clip-path="url(#397ab061f3)"><g clip-rule="nonzero" clip-path="url(#eb8e014818)"><path style=" stroke:none;fill-rule:nonzero;fill:#e6ffa9;fill-opacity:1;" d="M 1022.894531 956.164062 C 915.671875 970.410156 808.4375 984.664062 701.207031 998.898438 C 810.183594 966.632812 919.167969 934.363281 1028.148438 902.097656 "/></g></g></g></g></g></g><g clip-rule="nonzero" clip-path="url(#c51f20c2c2)"><g clip-rule="nonzero" clip-path="url(#612072b698)"><g clip-rule="nonzero" clip-path="url(#55306c60fe)"><g clip-rule="nonzero" clip-path="url(#c8db6c4cdc)"><g clip-rule="nonzero" clip-path="url(#164bd8df69)"><g clip-rule="nonzero" clip-path="url(#e1b8106d60)"><path style=" stroke:none;fill-rule:nonzero;fill:#e6ffa9;fill-opacity:1;" d="M 1108.257812 865.0625 C 1126.769531 768.710938 1164.300781 672.539062 1218.367188 582.96875 C 1180.316406 702.417969 1158.691406 823.882812 1154.234375 943.171875 "/></g></g></g></g></g></g><g clip-rule="nonzero" clip-path="url(#49a46cef89)"><g clip-rule="nonzero" clip-path="url(#c6e5e9a1ec)"><g clip-rule="nonzero" clip-path="url(#685163d50d)"><g clip-rule="nonzero" clip-path="url(#402a42c722)"><g clip-rule="nonzero" clip-path="url(#8fed649c06)"><g clip-rule="nonzero" clip-path="url(#dd14059238)"><path style=" stroke:none;fill-rule:nonzero;fill:#e6ffa9;fill-opacity:1;" d="M 971.601562 763.273438 C 1002.632812 683.269531 1037.609375 604.789062 1076.359375 528.238281 C 1063.507812 617.726562 1038.949219 705.527344 1003.53125 788.714844 "/></g></g></g></g></g></g><g clip-rule="nonzero" clip-path="url(#a73e68df41)"><g clip-rule="nonzero" clip-path="url(#c42f96dc4d)"><g clip-rule="nonzero" clip-path="url(#abe52291b2)"><g clip-rule="nonzero" clip-path="url(#27d3c51d9c)"><g clip-rule="nonzero" clip-path="url(#832c49d07c)"><g clip-rule="nonzero" clip-path="url(#0ef0eee024)"><path style=" stroke:none;fill-rule:nonzero;fill:#e6ffa9;fill-opacity:1;" d="M 996.253906 773.777344 C 901.105469 792.070312 806.621094 813.8125 713.039062 838.941406 C 814.242188 832.292969 915.441406 825.636719 1016.644531 818.988281 "/></g></g></g></g></g></g><g clip-rule="nonzero" clip-path="url(#b3522ee90d)"><g clip-rule="nonzero" clip-path="url(#a0a7230952)"><g clip-rule="nonzero" clip-path="url(#b114f1dbbf)"><g clip-rule="nonzero" clip-path="url(#796bb9356f)"><g clip-rule="nonzero" clip-path="url(#abddbe564a)"><g clip-rule="nonzero" clip-path="url(#115cb3822f)"><path style=" stroke:none;fill-rule:nonzero;fill:#e6ffa9;fill-opacity:1;" d="M 857.210938 629.699219 C 854.441406 584.957031 837.90625 540.433594 810.535156 504.074219 C 816.839844 537.207031 823.15625 570.335938 829.453125 603.460938 "/></g></g></g></g></g></g><g clip-rule="nonzero" clip-path="url(#0833649801)"><g clip-rule="nonzero" clip-path="url(#a28352a7f0)"><g clip-rule="nonzero" clip-path="url(#eb31e59798)"><g clip-rule="nonzero" clip-path="url(#ce2174391e)"><g clip-rule="nonzero" clip-path="url(#5ebfa038b6)"><g clip-rule="nonzero" clip-path="url(#0a0e7b720b)"><path style=" stroke:none;fill-rule:nonzero;fill:#e6ffa9;fill-opacity:1;" d="M 889.023438 650.214844 C 908.128906 610.089844 927.222656 569.960938 946.328125 529.835938 C 935.503906 582.898438 930.566406 647.785156 919.75 700.84375 C 860.574219 711.554688 801.460938 718.320312 743.066406 721.058594 C 787.339844 702.878906 831.617188 684.679688 875.890625 666.5 "/></g></g></g></g></g></g><g clip-rule="nonzero" clip-path="url(#d6ced36b83)"><g clip-rule="nonzero" clip-path="url(#2da80457d7)"><g clip-rule="nonzero" clip-path="url(#fcb2dbed3b)"><g clip-rule="nonzero" clip-path="url(#9941cbf2fd)"><path style=" stroke:none;fill-rule:nonzero;fill:#231f20;fill-opacity:1;" d="M 978.078125 948.835938 C 978.792969 949.925781 979.453125 951.050781 980.058594 952.207031 C 980.664062 953.363281 981.210938 954.546875 981.699219 955.757812 C 982.1875 956.96875 982.613281 958.199219 982.980469 959.449219 C 983.347656 960.703125 983.65625 961.96875 983.898438 963.253906 C 984.140625 964.535156 984.320312 965.824219 984.4375 967.125 C 984.550781 968.425781 984.605469 969.726562 984.59375 971.03125 C 984.582031 972.339844 984.503906 973.640625 984.363281 974.9375 C 984.226562 976.234375 984.023438 977.523438 983.753906 978.800781 C 983.488281 980.078125 983.160156 981.339844 982.769531 982.585938 C 982.378906 983.828125 981.929688 985.054688 981.421875 986.253906 C 980.910156 987.457031 980.339844 988.628906 979.714844 989.773438 C 979.089844 990.917969 978.410156 992.03125 977.675781 993.109375 C 976.941406 994.1875 976.152344 995.230469 975.316406 996.230469 C 974.480469 997.230469 973.59375 998.191406 972.664062 999.105469 C 971.734375 1000.019531 970.757812 1000.886719 969.742188 1001.703125 C 968.726562 1002.523438 967.671875 1003.289062 966.582031 1004.003906 C 965.488281 1004.722656 964.363281 1005.382812 963.207031 1005.984375 C 962.050781 1006.589844 960.867188 1007.136719 959.65625 1007.625 C 958.445312 1008.113281 957.214844 1008.542969 955.964844 1008.910156 C 954.710938 1009.277344 953.445312 1009.582031 952.160156 1009.828125 C 950.878906 1010.070312 949.585938 1010.25 948.289062 1010.367188 C 946.988281 1010.480469 945.683594 1010.535156 944.378906 1010.523438 C 943.074219 1010.511719 941.773438 1010.4375 940.476562 1010.296875 C 939.179688 1010.15625 937.890625 1009.953125 936.613281 1009.6875 C 935.335938 1009.421875 934.074219 1009.09375 932.828125 1008.703125 C 931.582031 1008.3125 930.359375 1007.863281 929.15625 1007.351562 C 927.957031 1006.84375 926.785156 1006.273438 925.636719 1005.648438 C 924.492188 1005.023438 923.378906 1004.34375 922.300781 1003.609375 C 921.222656 1002.875 920.183594 1002.089844 919.183594 1001.253906 C 918.179688 1000.414062 917.222656 999.53125 916.308594 998.601562 C 915.394531 997.667969 914.527344 996.695312 913.710938 995.679688 C 912.890625 994.664062 912.125 993.609375 911.410156 992.515625 C 910.691406 991.425781 910.03125 990.300781 909.429688 989.144531 C 908.824219 987.988281 908.277344 986.804688 907.789062 985.59375 C 907.300781 984.386719 906.871094 983.15625 906.503906 981.902344 C 906.136719 980.648438 905.832031 979.382812 905.589844 978.101562 C 905.347656 976.816406 905.167969 975.527344 905.050781 974.226562 C 904.933594 972.925781 904.882812 971.625 904.894531 970.320312 C 904.90625 969.015625 904.980469 967.714844 905.121094 966.417969 C 905.261719 965.117188 905.464844 963.832031 905.730469 962.554688 C 905.996094 961.277344 906.324219 960.015625 906.714844 958.769531 C 907.105469 957.523438 907.554688 956.300781 908.066406 955.097656 C 908.578125 953.898438 909.144531 952.722656 909.769531 951.578125 C 910.394531 950.433594 911.078125 949.320312 911.8125 948.242188 C 912.546875 947.164062 913.332031 946.125 914.167969 945.121094 C 915.007812 944.121094 915.890625 943.164062 916.824219 942.25 C 917.753906 941.335938 918.726562 940.46875 919.742188 939.648438 C 920.761719 938.828125 921.816406 938.0625 922.90625 937.347656 C 924 936.632812 925.121094 935.972656 926.277344 935.367188 C 927.433594 934.761719 928.617188 934.214844 929.828125 933.726562 C 931.039062 933.238281 932.269531 932.808594 933.523438 932.441406 C 934.777344 932.074219 936.042969 931.769531 937.324219 931.527344 C 938.609375 931.285156 939.898438 931.101562 941.199219 930.988281 C 942.5 930.871094 943.800781 930.820312 945.105469 930.832031 C 946.410156 930.84375 947.710938 930.917969 949.011719 931.058594 C 950.308594 931.195312 951.597656 931.398438 952.875 931.664062 C 954.152344 931.929688 955.414062 932.257812 956.660156 932.648438 C 957.902344 933.039062 959.128906 933.488281 960.328125 934 C 961.53125 934.511719 962.703125 935.078125 963.847656 935.703125 C 964.992188 936.328125 966.105469 937.007812 967.183594 937.742188 C 968.261719 938.476562 969.300781 939.265625 970.304688 940.101562 C 971.304688 940.9375 972.261719 941.820312 973.175781 942.753906 C 974.09375 943.683594 974.957031 944.65625 975.777344 945.675781 C 976.597656 946.691406 977.363281 947.742188 978.078125 948.835938 Z M 978.078125 948.835938 "/></g></g></g></g><g clip-rule="nonzero" clip-path="url(#041ee9ab9f)"><g clip-rule="nonzero" clip-path="url(#464bb2555e)"><g clip-rule="nonzero" clip-path="url(#3d22eba8ea)"><g clip-rule="nonzero" clip-path="url(#cfcf1e29bf)"><path style=" stroke:none;fill-rule:nonzero;fill:#231f20;fill-opacity:1;" d="M 1184.070312 763.84375 C 1184.785156 764.933594 1185.445312 766.058594 1186.050781 767.214844 C 1186.65625 768.371094 1187.203125 769.554688 1187.691406 770.765625 C 1188.179688 771.976562 1188.605469 773.207031 1188.972656 774.457031 C 1189.339844 775.710938 1189.644531 776.976562 1189.890625 778.261719 C 1190.132812 779.542969 1190.3125 780.832031 1190.425781 782.132812 C 1190.542969 783.433594 1190.597656 784.734375 1190.582031 786.039062 C 1190.570312 787.34375 1190.496094 788.648438 1190.355469 789.945312 C 1190.214844 791.242188 1190.015625 792.53125 1189.746094 793.808594 C 1189.480469 795.085938 1189.152344 796.347656 1188.761719 797.589844 C 1188.371094 798.835938 1187.921875 800.058594 1187.410156 801.261719 C 1186.902344 802.464844 1186.332031 803.636719 1185.707031 804.78125 C 1185.082031 805.925781 1184.402344 807.039062 1183.667969 808.117188 C 1182.929688 809.195312 1182.144531 810.238281 1181.308594 811.238281 C 1180.472656 812.238281 1179.585938 813.195312 1178.65625 814.113281 C 1177.722656 815.027344 1176.75 815.894531 1175.734375 816.710938 C 1174.71875 817.53125 1173.664062 818.296875 1172.570312 819.011719 C 1171.480469 819.726562 1170.355469 820.386719 1169.199219 820.992188 C 1168.042969 821.597656 1166.859375 822.144531 1165.648438 822.632812 C 1164.4375 823.121094 1163.207031 823.550781 1161.953125 823.917969 C 1160.703125 824.285156 1159.433594 824.589844 1158.152344 824.835938 C 1156.871094 825.078125 1155.578125 825.257812 1154.28125 825.375 C 1152.980469 825.488281 1151.675781 825.542969 1150.371094 825.53125 C 1149.066406 825.519531 1147.765625 825.441406 1146.46875 825.304688 C 1145.171875 825.164062 1143.882812 824.960938 1142.605469 824.695312 C 1141.328125 824.429688 1140.066406 824.101562 1138.820312 823.710938 C 1137.574219 823.320312 1136.351562 822.871094 1135.148438 822.359375 C 1133.949219 821.851562 1132.773438 821.28125 1131.628906 820.65625 C 1130.484375 820.03125 1129.371094 819.351562 1128.292969 818.617188 C 1127.214844 817.882812 1126.175781 817.097656 1125.175781 816.257812 C 1124.171875 815.421875 1123.214844 814.539062 1122.300781 813.605469 C 1121.386719 812.675781 1120.519531 811.703125 1119.699219 810.6875 C 1118.882812 809.671875 1118.113281 808.617188 1117.398438 807.523438 C 1116.683594 806.433594 1116.023438 805.308594 1115.421875 804.152344 C 1114.816406 802.996094 1114.269531 801.8125 1113.78125 800.601562 C 1113.292969 799.394531 1112.863281 798.160156 1112.496094 796.910156 C 1112.128906 795.65625 1111.824219 794.390625 1111.582031 793.109375 C 1111.335938 791.824219 1111.15625 790.535156 1111.042969 789.234375 C 1110.925781 787.933594 1110.875 786.632812 1110.886719 785.328125 C 1110.898438 784.023438 1110.972656 782.722656 1111.113281 781.421875 C 1111.253906 780.125 1111.457031 778.839844 1111.722656 777.558594 C 1111.988281 776.28125 1112.316406 775.019531 1112.707031 773.777344 C 1113.097656 772.53125 1113.546875 771.308594 1114.058594 770.105469 C 1114.570312 768.90625 1115.136719 767.730469 1115.761719 766.585938 C 1116.386719 765.441406 1117.066406 764.328125 1117.804688 763.25 C 1118.539062 762.171875 1119.324219 761.132812 1120.160156 760.128906 C 1121 759.128906 1121.882812 758.171875 1122.8125 757.257812 C 1123.746094 756.339844 1124.71875 755.476562 1125.734375 754.65625 C 1126.753906 753.835938 1127.804688 753.070312 1128.898438 752.355469 C 1129.988281 751.640625 1131.113281 750.980469 1132.269531 750.375 C 1133.425781 749.769531 1134.609375 749.222656 1135.820312 748.734375 C 1137.03125 748.246094 1138.261719 747.816406 1139.515625 747.449219 C 1140.765625 747.082031 1142.035156 746.777344 1143.316406 746.535156 C 1144.597656 746.289062 1145.890625 746.109375 1147.191406 745.996094 C 1148.492188 745.878906 1149.792969 745.824219 1151.097656 745.835938 C 1152.402344 745.847656 1153.703125 745.925781 1155.003906 746.0625 C 1156.300781 746.203125 1157.585938 746.40625 1158.863281 746.671875 C 1160.144531 746.9375 1161.40625 747.265625 1162.648438 747.65625 C 1163.894531 748.046875 1165.117188 748.496094 1166.320312 749.007812 C 1167.519531 749.515625 1168.695312 750.085938 1169.839844 750.710938 C 1170.984375 751.335938 1172.097656 752.015625 1173.175781 752.75 C 1174.253906 753.484375 1175.292969 754.269531 1176.296875 755.109375 C 1177.296875 755.945312 1178.253906 756.828125 1179.167969 757.761719 C 1180.082031 758.691406 1180.949219 759.664062 1181.769531 760.679688 C 1182.585938 761.699219 1183.355469 762.75 1184.070312 763.84375 Z M 1184.070312 763.84375 "/></g></g></g></g><g clip-rule="nonzero" clip-path="url(#e2883ad2b7)"><g clip-rule="nonzero" clip-path="url(#e4d6f23ba5)"><g clip-rule="nonzero" clip-path="url(#84c644b601)"><g clip-rule="nonzero" clip-path="url(#045538c572)"><path style=" stroke:none;fill-rule:nonzero;fill:#000000;fill-opacity:1;" d="M 1088.03125 857.921875 C 1091.886719 859.21875 1099.101562 863.265625 1105.773438 870.695312 C 1120.765625 887.386719 1118.25 909.261719 1099.910156 925.734375 C 1081.445312 942.316406 1057.59375 942.671875 1041.371094 924.601562 C 1036.035156 918.660156 1032.925781 911.949219 1031.945312 907.875 L 1042.421875 902.597656 C 1043.089844 906.332031 1045.117188 911.332031 1050.046875 916.8125 C 1061.445312 929.503906 1077.765625 927.234375 1090.285156 916 C 1104.167969 903.539062 1105.316406 887.632812 1095.460938 876.660156 C 1090.320312 870.941406 1085.324219 868.613281 1081.398438 866.984375 Z M 1088.03125 857.921875 "/></g></g></g></g><g clip-rule="nonzero" clip-path="url(#811f4acc4d)"><g clip-rule="nonzero" clip-path="url(#b6f84f4cd4)"><g clip-rule="nonzero" clip-path="url(#426bb189de)"><g clip-rule="nonzero" clip-path="url(#c9126868e7)"><path style=" stroke:none;fill-rule:nonzero;fill:#ffb3b3;fill-opacity:1;" d="M 1279.363281 764.363281 C 1279.984375 765.054688 1280.539062 765.804688 1281.023438 766.609375 C 1281.511719 767.417969 1281.929688 768.273438 1282.273438 769.1875 C 1282.621094 770.101562 1282.898438 771.0625 1283.105469 772.074219 C 1283.308594 773.082031 1283.441406 774.140625 1283.503906 775.238281 C 1283.5625 776.335938 1283.550781 777.476562 1283.46875 778.652344 C 1283.382812 779.828125 1283.226562 781.039062 1283 782.28125 C 1282.769531 783.527344 1282.46875 784.796875 1282.101562 786.09375 C 1281.730469 787.390625 1281.289062 788.710938 1280.78125 790.050781 C 1280.273438 791.390625 1279.699219 792.746094 1279.054688 794.113281 C 1278.414062 795.480469 1277.707031 796.859375 1276.9375 798.242188 C 1276.167969 799.628906 1275.339844 801.015625 1274.449219 802.402344 C 1273.5625 803.789062 1272.617188 805.171875 1271.617188 806.546875 C 1270.617188 807.925781 1269.5625 809.289062 1268.460938 810.640625 C 1267.359375 811.992188 1266.210938 813.328125 1265.019531 814.644531 C 1263.824219 815.957031 1262.59375 817.25 1261.320312 818.515625 C 1260.046875 819.78125 1258.738281 821.015625 1257.398438 822.21875 C 1256.058594 823.421875 1254.691406 824.589844 1253.296875 825.71875 C 1251.902344 826.847656 1250.488281 827.9375 1249.054688 828.984375 C 1247.617188 830.027344 1246.167969 831.027344 1244.707031 831.976562 C 1243.242188 832.929688 1241.773438 833.828125 1240.296875 834.675781 C 1238.824219 835.523438 1237.347656 836.316406 1235.871094 837.050781 C 1234.398438 837.789062 1232.929688 838.464844 1231.472656 839.082031 C 1230.011719 839.695312 1228.570312 840.25 1227.140625 840.742188 C 1225.710938 841.234375 1224.300781 841.664062 1222.914062 842.023438 C 1221.527344 842.386719 1220.167969 842.683594 1218.839844 842.914062 C 1217.507812 843.140625 1216.214844 843.304688 1214.953125 843.398438 C 1213.691406 843.492188 1212.472656 843.519531 1211.292969 843.476562 C 1210.113281 843.433594 1208.980469 843.324219 1207.894531 843.144531 C 1206.808594 842.96875 1205.773438 842.722656 1204.789062 842.410156 C 1203.808594 842.097656 1202.882812 841.722656 1202.011719 841.277344 C 1201.140625 840.835938 1200.332031 840.328125 1199.582031 839.757812 C 1198.832031 839.191406 1198.148438 838.558594 1197.527344 837.867188 C 1196.90625 837.175781 1196.351562 836.429688 1195.867188 835.621094 C 1195.378906 834.816406 1194.960938 833.957031 1194.613281 833.046875 C 1194.265625 832.132812 1193.992188 831.171875 1193.785156 830.160156 C 1193.582031 829.148438 1193.449219 828.09375 1193.386719 826.996094 C 1193.328125 825.894531 1193.339844 824.757812 1193.421875 823.582031 C 1193.507812 822.40625 1193.664062 821.195312 1193.890625 819.949219 C 1194.121094 818.707031 1194.417969 817.4375 1194.789062 816.140625 C 1195.160156 814.839844 1195.597656 813.523438 1196.109375 812.183594 C 1196.617188 810.84375 1197.191406 809.488281 1197.835938 808.121094 C 1198.476562 806.75 1199.183594 805.375 1199.953125 803.988281 C 1200.722656 802.605469 1201.550781 801.21875 1202.4375 799.832031 C 1203.328125 798.445312 1204.273438 797.0625 1205.273438 795.683594 C 1206.273438 794.308594 1207.324219 792.945312 1208.429688 791.59375 C 1209.53125 790.238281 1210.679688 788.90625 1211.871094 787.589844 C 1213.066406 786.273438 1214.296875 784.984375 1215.570312 783.71875 C 1216.84375 782.453125 1218.148438 781.21875 1219.488281 780.015625 C 1220.832031 778.8125 1222.199219 777.644531 1223.59375 776.515625 C 1224.988281 775.382812 1226.402344 774.296875 1227.835938 773.25 C 1229.273438 772.203125 1230.722656 771.207031 1232.183594 770.253906 C 1233.648438 769.304688 1235.117188 768.40625 1236.589844 767.558594 C 1238.066406 766.710938 1239.542969 765.917969 1241.015625 765.183594 C 1242.492188 764.445312 1243.957031 763.769531 1245.417969 763.152344 C 1246.875 762.535156 1248.320312 761.980469 1249.75 761.488281 C 1251.179688 760.996094 1252.589844 760.570312 1253.976562 760.207031 C 1255.363281 759.84375 1256.71875 759.550781 1258.050781 759.320312 C 1259.378906 759.089844 1260.675781 758.929688 1261.9375 758.835938 C 1263.199219 758.742188 1264.417969 758.714844 1265.597656 758.757812 C 1266.777344 758.800781 1267.910156 758.910156 1268.996094 759.085938 C 1270.082031 759.265625 1271.117188 759.511719 1272.097656 759.820312 C 1273.082031 760.132812 1274.007812 760.511719 1274.878906 760.953125 C 1275.75 761.398438 1276.558594 761.902344 1277.308594 762.472656 C 1278.058594 763.042969 1278.742188 763.675781 1279.363281 764.363281 Z M 1279.363281 764.363281 "/></g></g></g></g><g clip-rule="nonzero" clip-path="url(#f1b6a91800)"><g clip-rule="nonzero" clip-path="url(#abb47e0866)"><g clip-rule="nonzero" clip-path="url(#1bd2e572d5)"><g clip-rule="nonzero" clip-path="url(#161ddf3314)"><path style=" stroke:none;fill-rule:nonzero;fill:#ffb3b3;fill-opacity:1;" d="M 986.503906 1027.328125 C 987.125 1028.019531 987.675781 1028.765625 988.164062 1029.570312 C 988.652344 1030.378906 989.066406 1031.238281 989.414062 1032.148438 C 989.761719 1033.0625 990.039062 1034.023438 990.242188 1035.035156 C 990.449219 1036.046875 990.582031 1037.101562 990.640625 1038.199219 C 990.703125 1039.296875 990.691406 1040.4375 990.605469 1041.613281 C 990.523438 1042.789062 990.367188 1044 990.136719 1045.242188 C 989.910156 1046.488281 989.609375 1047.757812 989.238281 1049.054688 C 988.871094 1050.355469 988.429688 1051.671875 987.921875 1053.011719 C 987.414062 1054.351562 986.835938 1055.707031 986.195312 1057.074219 C 985.554688 1058.445312 984.847656 1059.820312 984.078125 1061.207031 C 983.308594 1062.589844 982.480469 1063.976562 981.589844 1065.363281 C 980.699219 1066.75 979.757812 1068.132812 978.753906 1069.507812 C 977.753906 1070.886719 976.703125 1072.25 975.601562 1073.601562 C 974.5 1074.957031 973.351562 1076.289062 972.15625 1077.605469 C 970.964844 1078.921875 969.730469 1080.210938 968.460938 1081.476562 C 967.1875 1082.742188 965.878906 1083.976562 964.539062 1085.179688 C 963.199219 1086.382812 961.832031 1087.550781 960.4375 1088.679688 C 959.042969 1089.8125 957.628906 1090.898438 956.191406 1091.945312 C 954.757812 1092.988281 953.308594 1093.988281 951.84375 1094.941406 C 950.382812 1095.890625 948.914062 1096.789062 947.4375 1097.636719 C 945.960938 1098.484375 944.488281 1099.277344 943.011719 1100.011719 C 941.539062 1100.75 940.070312 1101.425781 938.613281 1102.042969 C 937.152344 1102.660156 935.707031 1103.214844 934.277344 1103.707031 C 932.847656 1104.199219 931.441406 1104.625 930.054688 1104.988281 C 928.667969 1105.347656 927.308594 1105.644531 925.980469 1105.875 C 924.648438 1106.105469 923.351562 1106.265625 922.09375 1106.359375 C 920.832031 1106.453125 919.613281 1106.480469 918.433594 1106.4375 C 917.253906 1106.394531 916.121094 1106.285156 915.035156 1106.109375 C 913.949219 1105.929688 912.914062 1105.683594 911.929688 1105.371094 C 910.945312 1105.0625 910.019531 1104.683594 909.148438 1104.242188 C 908.28125 1103.796875 907.46875 1103.292969 906.722656 1102.722656 C 905.972656 1102.152344 905.285156 1101.519531 904.667969 1100.828125 C 904.046875 1100.140625 903.492188 1099.390625 903.003906 1098.585938 C 902.519531 1097.777344 902.101562 1096.917969 901.753906 1096.007812 C 901.40625 1095.09375 901.128906 1094.132812 900.925781 1093.121094 C 900.71875 1092.109375 900.585938 1091.054688 900.527344 1089.957031 C 900.464844 1088.859375 900.476562 1087.71875 900.5625 1086.542969 C 900.648438 1085.367188 900.804688 1084.15625 901.03125 1082.914062 C 901.257812 1081.667969 901.558594 1080.398438 901.929688 1079.101562 C 902.300781 1077.804688 902.738281 1076.484375 903.246094 1075.144531 C 903.757812 1073.804688 904.332031 1072.449219 904.972656 1071.082031 C 905.617188 1069.710938 906.320312 1068.335938 907.089844 1066.949219 C 907.859375 1065.566406 908.691406 1064.179688 909.578125 1062.792969 C 910.46875 1061.40625 911.414062 1060.023438 912.414062 1058.648438 C 913.414062 1057.269531 914.464844 1055.90625 915.566406 1054.554688 C 916.671875 1053.199219 917.816406 1051.867188 919.011719 1050.550781 C 920.203125 1049.238281 921.4375 1047.945312 922.710938 1046.679688 C 923.984375 1045.414062 925.289062 1044.179688 926.628906 1042.976562 C 927.96875 1041.773438 929.335938 1040.605469 930.730469 1039.476562 C 932.125 1038.347656 933.542969 1037.257812 934.976562 1036.210938 C 936.414062 1035.167969 937.859375 1034.167969 939.324219 1033.214844 C 940.785156 1032.265625 942.253906 1031.367188 943.730469 1030.519531 C 945.207031 1029.671875 946.683594 1028.878906 948.15625 1028.144531 C 949.632812 1027.40625 951.097656 1026.730469 952.558594 1026.113281 C 954.015625 1025.496094 955.460938 1024.945312 956.890625 1024.453125 C 958.320312 1023.960938 959.730469 1023.53125 961.113281 1023.167969 C 962.5 1022.808594 963.859375 1022.511719 965.191406 1022.28125 C 966.519531 1022.054688 967.816406 1021.890625 969.078125 1021.796875 C 970.335938 1021.703125 971.558594 1021.675781 972.734375 1021.71875 C 973.914062 1021.761719 975.046875 1021.871094 976.132812 1022.050781 C 977.222656 1022.226562 978.253906 1022.472656 979.238281 1022.785156 C 980.222656 1023.09375 981.148438 1023.472656 982.019531 1023.917969 C 982.890625 1024.359375 983.699219 1024.867188 984.449219 1025.433594 C 985.199219 1026.003906 985.882812 1026.636719 986.503906 1027.328125 Z M 986.503906 1027.328125 "/></g></g></g></g></g></svg>