<svg xmlns="http://www.w3.org/2000/svg" xmlns:xlink="http://www.w3.org/1999/xlink" width="3000" zoomAndPan="magnify" viewBox="0 0 2250 2250.000011" height="3000" preserveAspectRatio="xMidYMid meet" version="1.2"><g id="6393a4ecfa"><path style=" stroke:none;fill-rule:nonzero;fill:#a2bd6a;fill-opacity:1;" d="M 663.714844 1191.066406 C 688.917969 1229.3125 741.335938 1246.367188 784.960938 1250.597656 C 833.070312 1255.261719 892.195312 1255.054688 926.550781 1215.371094 C 950.429688 1187.785156 908.972656 1149.15625 885.015625 1176.832031 C 875.0625 1188.332031 860.992188 1192.714844 845.855469 1194.617188 C 836.949219 1195.738281 827.929688 1195.917969 818.964844 1195.921875 C 814.035156 1195.925781 809.105469 1195.726562 804.179688 1195.519531 C 802.929688 1195.46875 791.316406 1194.804688 795.242188 1195.183594 C 767.480469 1192.488281 725.742188 1182.207031 711.554688 1160.671875 C 691.492188 1130.222656 643.5625 1160.472656 663.714844 1191.066406 Z M 663.714844 1191.066406 "/><path style=" stroke:none;fill-rule:nonzero;fill:#113c70;fill-opacity:1;" d="M 657.601562 1194.636719 C 684.21875 1233.222656 730.660156 1250.441406 775.519531 1256.570312 C 819.605469 1262.59375 869.472656 1263.054688 908.84375 1239.609375 C 924.660156 1230.1875 940.683594 1215.453125 940.769531 1195.882812 C 940.832031 1181.339844 928.957031 1166.46875 915.308594 1162.132812 C 893.582031 1155.226562 885.496094 1170.699219 869.09375 1180.664062 C 847.53125 1193.753906 818.265625 1187.816406 794.433594 1188.003906 C 785.023438 1188.078125 785.652344 1201.03125 794.433594 1202.164062 C 794.703125 1202.199219 794.972656 1202.234375 795.242188 1202.269531 C 795.242188 1197.550781 795.242188 1192.832031 795.242188 1188.109375 C 773.644531 1185.820312 751.675781 1180.769531 732.613281 1170.085938 C 717.632812 1161.691406 712.230469 1144.382812 693.984375 1141.363281 C 663.867188 1136.382812 642.648438 1169.246094 657.601562 1194.636719 C 662.230469 1202.5 674.476562 1195.378906 669.835938 1187.488281 C 661.851562 1173.929688 668.75 1160.574219 683.179688 1155.921875 C 698.816406 1150.882812 705.601562 1166.671875 715.300781 1175.167969 C 736.316406 1193.566406 768.394531 1199.421875 795.242188 1202.269531 C 804.402344 1203.238281 804.109375 1189.25 795.242188 1188.105469 C 794.976562 1188.070312 794.703125 1188.035156 794.4375 1188 C 794.4375 1192.71875 794.4375 1197.4375 794.4375 1202.164062 C 827.082031 1201.910156 865.105469 1208.070312 890.023438 1181.835938 C 902.707031 1168.484375 920.921875 1175.824219 926.027344 1192.324219 C 931.800781 1210.984375 904.648438 1226.410156 891.359375 1233.007812 C 856.996094 1250.085938 812.394531 1247.4375 775.457031 1242.386719 C 736.035156 1237.003906 693.25 1221.429688 669.835938 1187.488281 C 664.683594 1180.027344 652.398438 1187.097656 657.601562 1194.636719 Z M 657.601562 1194.636719 "/><path style=" stroke:none;fill-rule:nonzero;fill:#113c70;fill-opacity:1;" d="M 885.015625 1176.828125 C 875.058594 1188.328125 860.992188 1192.714844 845.855469 1194.617188 C 836.949219 1195.734375 827.929688 1195.914062 818.964844 1195.917969 C 814.875 1195.921875 810.789062 1195.777344 806.703125 1195.613281 C 804.140625 1214.378906 803.363281 1233.320312 804.9375 1252.121094 C 848.566406 1254.476562 896.828125 1249.695312 926.546875 1215.363281 C 950.429688 1187.785156 908.976562 1149.15625 885.015625 1176.828125 Z M 885.015625 1176.828125 "/><path style=" stroke:none;fill-rule:nonzero;fill:#a2bd6a;fill-opacity:1;" d="M 669.136719 1031.40625 C 661.761719 1021.285156 656.210938 1008.171875 655.445312 995.511719 C 649.863281 948.929688 609.160156 952.320312 589.539062 989.8125 C 583.144531 1001.34375 580.011719 1021.246094 582.300781 1030.050781 C 566.882812 1030.878906 545.023438 1035.847656 535.621094 1043.414062 C 516.023438 1057.472656 512.441406 1077.726562 519.703125 1097.398438 C 487.367188 1117.816406 494.269531 1148.316406 509.828125 1170.851562 C 497.894531 1193.941406 501.667969 1216.574219 520.191406 1232.03125 C 533.4375 1243.824219 554.945312 1244.617188 569.078125 1237.484375 C 591.332031 1247.664062 608.816406 1251.839844 632.816406 1245.308594 C 659.808594 1237.964844 679.632812 1226.046875 687.222656 1215.632812 C 704.765625 1191.554688 714.605469 1160.082031 720.179688 1130.695312 C 728.464844 1087.023438 691.980469 1062.765625 669.136719 1031.40625 Z M 669.136719 1031.40625 "/><path style=" stroke:none;fill-rule:nonzero;fill:#113c70;fill-opacity:1;" d="M 502.257812 1174.128906 C 495.265625 1190.582031 493.398438 1206.078125 502.179688 1222.246094 C 509.742188 1236.171875 524.730469 1245.804688 540.050781 1248.417969 C 564.757812 1252.632812 594.601562 1238.183594 589.285156 1209.714844 C 587.609375 1200.746094 573.953125 1204.554688 575.621094 1213.480469 C 579.132812 1232.265625 554.367188 1236.5625 540.839844 1234.253906 C 515.273438 1229.894531 505.105469 1203.359375 514.488281 1181.273438 C 518.019531 1172.972656 505.820312 1165.75 502.257812 1174.128906 Z M 502.257812 1174.128906 "/><path style=" stroke:none;fill-rule:nonzero;fill:#113c70;fill-opacity:1;" d="M 512.183594 1096.695312 C 468.175781 1121.101562 497.199219 1176.203125 527.21875 1198.96875 C 548.734375 1215.28125 579.34375 1227.308594 604.09375 1210.875 C 622.246094 1198.824219 622.386719 1174.230469 619.621094 1155.113281 C 618.316406 1146.105469 604.667969 1149.949219 605.960938 1158.878906 C 608.105469 1173.714844 608.007812 1191.300781 594.171875 1200.484375 C 574.398438 1213.613281 546.4375 1196.808594 530.96875 1184.019531 C 510.464844 1167.0625 487.941406 1126.332031 519.332031 1108.925781 C 527.320312 1104.496094 520.179688 1092.265625 512.183594 1096.695312 Z M 512.183594 1096.695312 "/><path style=" stroke:none;fill-rule:nonzero;fill:#113c70;fill-opacity:1;" d="M 575.984375 1023.003906 C 546.324219 1021.273438 513.664062 1042.578125 509.539062 1073.195312 C 505.457031 1103.5 528.523438 1129.425781 551.566406 1145.402344 C 571.425781 1159.171875 609.832031 1174.445312 630.988281 1154.484375 C 647.710938 1138.714844 644.503906 1112.394531 635.445312 1093.554688 C 629.261719 1080.6875 618.257812 1074.375 607.886719 1065.527344 C 594.261719 1053.90625 588.609375 1036.035156 588.851562 1018.65625 C 589.128906 998.675781 619.238281 946.460938 641.570312 976.039062 C 646.710938 982.851562 647.988281 992.070312 648.863281 1000.277344 C 649.699219 1008.128906 652.554688 1015.339844 655.644531 1022.519531 C 662.1875 1037.683594 675.285156 1050.367188 686.042969 1062.585938 C 696.550781 1074.527344 706.652344 1086.945312 711.820312 1102.195312 C 718.332031 1121.402344 710.785156 1142.984375 704.882812 1161.402344 C 694.195312 1194.753906 679.199219 1226.984375 642.972656 1235.96875 C 621.335938 1241.339844 593.339844 1240.34375 572.648438 1231.371094 C 564.359375 1227.777344 557.136719 1239.972656 565.496094 1243.597656 C 607.683594 1261.890625 669.929688 1256.910156 695.824219 1215.199219 C 713.683594 1186.433594 731.125 1145.453125 728.019531 1110.972656 C 725.363281 1081.449219 701.699219 1059.453125 683.542969 1038.242188 C 677.4375 1031.113281 672.144531 1023.734375 667.878906 1015.367188 C 663.140625 1006.074219 662.9375 995.695312 660.882812 985.707031 C 658.511719 974.195312 651.871094 963.636719 641.695312 957.644531 C 621.078125 945.5 598.464844 963.660156 587.203125 979.808594 C 571.410156 1002.445312 571.410156 1032.210938 583.160156 1056.449219 C 589.773438 1070.082031 601.238281 1077.21875 612.355469 1086.535156 C 623.996094 1096.285156 629.167969 1111.992188 628.652344 1126.761719 C 627.988281 1145.625 611.695312 1150.96875 595.058594 1148.726562 C 576.371094 1146.207031 558.714844 1134.636719 544.953125 1122.355469 C 530.632812 1109.574219 520.109375 1089.355469 524.457031 1069.953125 C 529.210938 1048.734375 556.226562 1036.019531 575.984375 1037.171875 C 585.117188 1037.699219 585.066406 1023.535156 575.984375 1023.003906 Z M 575.984375 1023.003906 "/><path style=" stroke:none;fill-rule:nonzero;fill:#a2bd6a;fill-opacity:1;" d="M 767.640625 1198.207031 C 747.371094 1194.117188 726.675781 1186.871094 712.964844 1173.128906 C 703.628906 1163.785156 696.484375 1150.105469 680.820312 1156.699219 C 667.808594 1162.140625 662.382812 1174.8125 669.710938 1187.265625 C 690.007812 1216.734375 724.679688 1232.371094 759.183594 1239.519531 C 763.351562 1225.972656 766.546875 1212.273438 767.640625 1198.207031 Z M 767.640625 1198.207031 "/><path style=" stroke:none;fill-rule:nonzero;fill:#a2bd6a;fill-opacity:1;" d="M 1558.253906 976.160156 C 1562.558594 1021.753906 1532.363281 1067.851562 1500.996094 1098.449219 C 1466.402344 1132.191406 1420.164062 1169.023438 1368.519531 1159.574219 C 1332.625 1153.007812 1340.753906 1096.945312 1376.773438 1103.53125 C 1391.738281 1106.269531 1405.453125 1100.886719 1418.449219 1092.902344 C 1426.09375 1088.199219 1433.238281 1082.695312 1440.234375 1077.09375 C 1444.082031 1074.011719 1447.800781 1070.773438 1451.511719 1067.53125 C 1452.460938 1066.703125 1461.097656 1058.917969 1458.273438 1061.675781 C 1478.234375 1042.203125 1504.339844 1008.066406 1501.917969 982.398438 C 1498.488281 946.09375 1554.808594 939.691406 1558.253906 976.160156 Z M 1558.253906 976.160156 "/><path style=" stroke:none;fill-rule:nonzero;fill:#113c70;fill-opacity:1;" d="M 1551.167969 976.160156 C 1554.339844 1021.796875 1527.085938 1062.550781 1495.984375 1093.441406 C 1466.453125 1122.777344 1429.925781 1152.3125 1386.511719 1153.988281 C 1371.429688 1154.570312 1354.386719 1151.230469 1352.496094 1133.699219 C 1351.03125 1120.121094 1360.921875 1108.429688 1374.890625 1110.363281 C 1411.878906 1115.484375 1437.398438 1086.984375 1463.847656 1066.097656 C 1460.511719 1062.757812 1457.167969 1059.417969 1453.832031 1056.082031 C 1453.644531 1056.277344 1453.453125 1056.476562 1453.265625 1056.667969 C 1446.933594 1063.246094 1456.796875 1073.136719 1463.285156 1066.683594 C 1484.699219 1045.386719 1507.808594 1017.324219 1509.160156 985.792969 C 1509.753906 972.003906 1511.847656 962.554688 1527.058594 959.164062 C 1540.304688 956.214844 1549.730469 965.792969 1551.425781 978.042969 C 1552.671875 987.058594 1566.320312 983.207031 1565.085938 974.28125 C 1561.308594 946.980469 1528.449219 935.65625 1507.289062 952.859375 C 1492.875 964.582031 1497.105469 978.496094 1493.945312 994.554688 C 1489.253906 1018.394531 1469.925781 1040.101562 1453.261719 1056.667969 C 1456.601562 1060.007812 1459.941406 1063.347656 1463.28125 1066.683594 C 1463.46875 1066.488281 1463.65625 1066.289062 1463.847656 1066.097656 C 1470.34375 1059.34375 1460.824219 1050.558594 1453.828125 1056.082031 C 1436.066406 1070.109375 1420.464844 1086.546875 1398.765625 1094.699219 C 1380.816406 1101.441406 1364.128906 1090.726562 1348.550781 1105.140625 C 1339.066406 1113.910156 1337.042969 1128.21875 1339.265625 1140.265625 C 1342.207031 1156.214844 1356.34375 1164.789062 1371.179688 1167.121094 C 1420.964844 1174.957031 1465.640625 1141.367188 1499.78125 1109.433594 C 1536.257812 1075.316406 1568.960938 1028.332031 1565.339844 976.164062 C 1564.710938 967.101562 1550.539062 967.042969 1551.167969 976.160156 Z M 1551.167969 976.160156 "/><path style=" stroke:none;fill-rule:nonzero;fill:#113c70;fill-opacity:1;" d="M 1431.054688 1084.222656 C 1426.96875 1087.285156 1422.792969 1090.230469 1418.449219 1092.902344 C 1405.453125 1100.890625 1391.738281 1106.269531 1376.769531 1103.53125 C 1340.75 1096.945312 1332.621094 1153.007812 1368.515625 1159.574219 C 1391.339844 1163.75 1413.101562 1158.875 1433.273438 1149.234375 C 1434.023438 1127.65625 1432.078125 1105.902344 1431.054688 1084.222656 Z M 1431.054688 1084.222656 "/><path style=" stroke:none;fill-rule:nonzero;fill:#a2bd6a;fill-opacity:1;" d="M 1454.027344 855.050781 C 1453.4375 842.546875 1449.554688 828.84375 1442.222656 818.488281 C 1417.398438 778.671875 1451.261719 755.847656 1490.046875 772.808594 C 1502.253906 777.800781 1517.164062 791.355469 1520.890625 799.660156 C 1533.429688 790.65625 1553.589844 780.851562 1565.660156 780.867188 C 1589.75 779.566406 1605.226562 793.117188 1611.886719 813.003906 C 1649.894531 808.691406 1663.609375 836.796875 1665.59375 864.101562 C 1689.359375 874.640625 1700.59375 894.652344 1695.832031 918.296875 C 1692.890625 935.78125 1676.613281 949.859375 1661.125 953.136719 C 1650.152344 975 1639.132812 989.203125 1616.324219 999.121094 C 1590.675781 1010.285156 1567.753906 1013.398438 1555.3125 1010.023438 C 1526.550781 1002.230469 1499.164062 983.839844 1476.414062 964.414062 C 1442.601562 935.546875 1455.855469 893.800781 1454.027344 855.050781 Z M 1454.027344 855.050781 "/><path style=" stroke:none;fill-rule:nonzero;fill:#113c70;fill-opacity:1;" d="M 1667.445312 874.648438 C 1688.472656 885.839844 1696.808594 907.546875 1684.019531 929.082031 C 1675.960938 942.65625 1650.515625 956.148438 1640.601562 937.75 C 1636.273438 929.703125 1624.039062 936.855469 1628.367188 944.898438 C 1643.066406 972.191406 1677.730469 959.722656 1693.363281 940.226562 C 1715.003906 913.234375 1703.035156 877.558594 1674.59375 862.421875 C 1666.539062 858.132812 1659.378906 870.359375 1667.445312 874.648438 Z M 1667.445312 874.648438 "/><path style=" stroke:none;fill-rule:nonzero;fill:#113c70;fill-opacity:1;" d="M 1620.238281 821.585938 C 1654.117188 815.667969 1661.339844 859.453125 1657.96875 884.117188 C 1655.730469 900.5 1648.597656 917.886719 1637.316406 930.003906 C 1616.914062 951.917969 1594.425781 933.835938 1582.742188 914.160156 C 1578.082031 906.316406 1565.832031 913.433594 1570.507812 921.308594 C 1583.039062 942.40625 1601.617188 959.492188 1627.601562 952.304688 C 1652.75 945.34375 1664.789062 916.34375 1670.539062 893.5625 C 1679.910156 856.441406 1663.902344 799.640625 1616.46875 807.933594 C 1607.484375 809.503906 1611.308594 823.148438 1620.238281 821.585938 Z M 1620.238281 821.585938 "/><path style=" stroke:none;fill-rule:nonzero;fill:#113c70;fill-opacity:1;" d="M 1530.847656 800.742188 C 1544.996094 787.964844 1568.5 783.519531 1586.113281 791.605469 C 1602.039062 798.914062 1607.523438 817.875 1608.519531 833.875 C 1610.25 861.734375 1595.394531 903.066406 1566.578125 912.289062 C 1550.558594 917.414062 1538.476562 896.917969 1534.367188 884.691406 C 1528.226562 866.410156 1538.457031 848.929688 1537.949219 830.445312 C 1537.113281 799.992188 1515.109375 775.375 1488.070312 764.417969 C 1466.316406 755.597656 1437.371094 759.300781 1428.140625 783.300781 C 1423.75 794.710938 1428.714844 807.96875 1433.820312 818.140625 C 1438.265625 827 1443.054688 834.351562 1445.503906 844.195312 C 1447.996094 854.1875 1447.214844 865.085938 1446.863281 875.277344 C 1445.777344 906.839844 1443.390625 937.617188 1465.0625 963.269531 C 1476.277344 976.546875 1493.464844 986.867188 1508.136719 995.792969 C 1524.066406 1005.484375 1542.300781 1014.601562 1560.589844 1018.738281 C 1601.59375 1028.015625 1649.015625 991.085938 1667.25 956.710938 C 1671.523438 948.648438 1659.296875 941.492188 1655.015625 949.5625 C 1641.941406 974.203125 1615.640625 995.15625 1589.226562 1003.359375 C 1570.542969 1009.164062 1553.765625 1002.714844 1536.761719 994.96875 C 1516.773438 985.863281 1498.226562 973.476562 1481.425781 959.410156 C 1451.628906 934.460938 1461.636719 892.996094 1461.257812 859.070312 C 1461.082031 843.324219 1456.929688 828.148438 1448.347656 814.917969 C 1438.730469 800.097656 1436.777344 780.726562 1456.785156 775.09375 C 1472.875 770.5625 1491.964844 779.601562 1503.785156 789.898438 C 1519.570312 803.648438 1526.378906 825.25 1522.753906 845.574219 C 1519.988281 861.074219 1516.488281 872.585938 1520.710938 888.457031 C 1524.214844 901.621094 1532.699219 912.882812 1543.425781 920.980469 C 1565.1875 937.414062 1590.289062 918.207031 1603.082031 900.25 C 1618.976562 877.953125 1625.382812 847.644531 1621.25 820.878906 C 1613.71875 772.113281 1555.210938 759.679688 1520.835938 790.730469 C 1514.039062 796.863281 1524.089844 806.84375 1530.847656 800.742188 Z M 1530.847656 800.742188 "/><path style=" stroke:none;fill-rule:nonzero;fill:#a2bd6a;fill-opacity:1;" d="M 1085.96875 1611.148438 C 1085.96875 1611.148438 988.675781 1633.0625 939.421875 1690.214844 C 890.164062 1747.363281 854.042969 1912.144531 854.042969 1912.144531 L 700.03125 1787.707031 C 700.03125 1787.707031 746.589844 1730.136719 839.039062 1804.832031 C 839.039062 1804.832031 860.636719 1678.0625 918.515625 1633.9375 C 976.398438 1589.816406 1060.699219 1564.472656 1060.699219 1564.472656 Z M 1085.96875 1611.148438 "/><path style=" stroke:none;fill-rule:nonzero;fill:#113c70;fill-opacity:1;" d="M 1084.089844 1604.320312 C 1014.335938 1620.210938 944.597656 1657.195312 910.359375 1721.996094 C 879.726562 1779.976562 861.261719 1846.417969 847.210938 1910.261719 C 851.160156 1909.21875 855.109375 1908.179688 859.050781 1907.140625 C 807.714844 1865.65625 756.375 1824.175781 705.039062 1782.699219 C 705.039062 1786.035156 705.039062 1789.375 705.039062 1792.710938 C 739.101562 1751.328125 802.242188 1784.671875 834.03125 1809.839844 C 837.730469 1812.765625 844.871094 1812.542969 845.871094 1806.714844 C 854.171875 1758.484375 870.046875 1708.09375 897.410156 1667.285156 C 919.421875 1634.453125 957.277344 1615.394531 992.058594 1598.898438 C 1014.785156 1588.121094 1038.484375 1578.597656 1062.585938 1571.300781 C 1059.917969 1570.21875 1057.25 1569.132812 1054.585938 1568.046875 C 1063.007812 1583.605469 1071.433594 1599.164062 1079.855469 1614.726562 C 1084.207031 1622.761719 1096.441406 1615.609375 1092.089844 1607.578125 C 1083.667969 1592.019531 1075.242188 1576.460938 1066.820312 1560.898438 C 1065.34375 1558.175781 1061.773438 1556.75 1058.820312 1557.644531 C 1034.789062 1564.917969 1011.363281 1574.554688 988.546875 1584.976562 C 953.304688 1601.074219 914.730469 1620.710938 890.886719 1652.265625 C 858.800781 1694.726562 841.171875 1750.898438 832.207031 1802.953125 C 836.15625 1801.910156 840.101562 1800.867188 844.046875 1799.828125 C 813.394531 1775.5625 776.8125 1754.59375 736.375 1760.777344 C 721.582031 1763.039062 704.738281 1770.894531 695.019531 1782.703125 C 692.777344 1785.425781 691.8125 1790.125 695.019531 1792.714844 C 746.359375 1834.195312 797.695312 1875.675781 849.035156 1917.15625 C 852.871094 1920.257812 859.621094 1919.714844 860.871094 1914.03125 C 874.285156 1853.074219 892.117188 1790.871094 919.722656 1734.78125 C 939.527344 1694.539062 969.664062 1667.554688 1009.386719 1647.019531 C 1033.949219 1634.324219 1060.835938 1624.136719 1087.855469 1617.980469 C 1096.757812 1615.945312 1092.980469 1602.292969 1084.089844 1604.320312 Z M 1084.089844 1604.320312 "/><path style=" stroke:none;fill-rule:nonzero;fill:#113c70;fill-opacity:1;" d="M 941.023438 1688.441406 C 990.746094 1632.625 1085.96875 1611.148438 1085.96875 1611.148438 L 1060.699219 1564.46875 C 1060.699219 1564.46875 976.394531 1589.8125 918.515625 1633.933594 C 911.417969 1639.351562 904.863281 1646.011719 898.828125 1653.527344 C 911.554688 1666.636719 925.75 1678.394531 941.023438 1688.441406 Z M 941.023438 1688.441406 "/><path style=" stroke:none;fill-rule:nonzero;fill:#a2bd6a;fill-opacity:1;" d="M 1186.675781 1536.582031 C 1186.675781 1536.582031 1248.550781 1614.757812 1250.90625 1690.152344 C 1253.261719 1765.550781 1177.714844 1916.390625 1177.714844 1916.390625 L 1375.75 1916.390625 C 1375.75 1916.390625 1375.75 1842.359375 1256.878906 1842.359375 C 1256.878906 1842.359375 1319.820312 1730.207031 1302.558594 1659.523438 C 1285.304688 1588.839844 1235.683594 1516.160156 1235.683594 1516.160156 Z M 1186.675781 1536.582031 "/><path style=" stroke:none;fill-rule:nonzero;fill:#113c70;fill-opacity:1;" d="M 1181.664062 1541.585938 C 1198.898438 1563.488281 1216.007812 1593.777344 1227.441406 1621.300781 C 1236.828125 1643.886719 1243.386719 1668.148438 1243.871094 1692.695312 C 1244.234375 1711.078125 1240.191406 1729.496094 1235.789062 1747.230469 C 1221.609375 1804.355469 1197.886719 1860.234375 1171.597656 1912.820312 C 1169.246094 1917.53125 1172.082031 1923.476562 1177.714844 1923.476562 C 1243.726562 1923.476562 1309.738281 1923.476562 1375.75 1923.476562 C 1379.589844 1923.476562 1382.859375 1920.253906 1382.832031 1916.394531 C 1382.386719 1854.1875 1305.296875 1835.6875 1256.878906 1835.28125 C 1258.914062 1838.832031 1260.957031 1842.386719 1262.992188 1845.9375 C 1288.34375 1800.5625 1308.792969 1747.960938 1312.359375 1695.867188 C 1315.085938 1656.085938 1297.828125 1617.152344 1281.125 1581.996094 C 1269.761719 1558.070312 1256.707031 1534.515625 1241.800781 1512.582031 C 1240.175781 1510.191406 1236.824219 1508.070312 1233.800781 1509.328125 C 1217.460938 1516.136719 1201.128906 1522.945312 1184.789062 1529.75 C 1176.484375 1533.210938 1180.125 1546.917969 1188.554688 1543.40625 C 1204.894531 1536.601562 1221.226562 1529.792969 1237.566406 1522.984375 C 1234.898438 1521.902344 1232.230469 1520.816406 1229.566406 1519.730469 C 1242.875 1539.316406 1254.414062 1560.210938 1265.0625 1581.328125 C 1282.808594 1616.523438 1300.125 1655.714844 1298.195312 1695.867188 C 1295.832031 1745.007812 1274.566406 1796.179688 1250.757812 1838.789062 C 1248.136719 1843.484375 1251.4375 1849.398438 1256.875 1849.441406 C 1297.535156 1849.785156 1368.285156 1864.046875 1368.660156 1916.390625 C 1371.023438 1914.027344 1373.382812 1911.671875 1375.746094 1909.308594 C 1309.734375 1909.308594 1243.722656 1909.308594 1177.710938 1909.308594 C 1179.75 1912.859375 1181.789062 1916.414062 1183.828125 1919.964844 C 1212.113281 1863.371094 1237.554688 1803.046875 1251.765625 1741.304688 C 1261.984375 1696.902344 1256.996094 1655.78125 1239.492188 1613.65625 C 1227.40625 1584.574219 1211.1875 1556.363281 1191.679688 1531.566406 C 1186.035156 1524.398438 1176.085938 1534.496094 1181.664062 1541.585938 Z M 1181.664062 1541.585938 "/><path style=" stroke:none;fill-rule:nonzero;fill:#113c70;fill-opacity:1;" d="M 1248.539062 1720.867188 C 1268.613281 1715.292969 1287.5625 1706.257812 1305.328125 1694.957031 C 1305.988281 1682.53125 1305.246094 1670.523438 1302.558594 1659.527344 C 1285.304688 1588.84375 1235.683594 1516.160156 1235.683594 1516.160156 L 1186.675781 1536.582031 C 1186.675781 1536.582031 1248.550781 1614.761719 1250.90625 1690.15625 C 1251.195312 1699.394531 1250.308594 1709.773438 1248.539062 1720.867188 Z M 1248.539062 1720.867188 "/><path style=" stroke:none;fill-rule:nonzero;fill:#a2bd6a;fill-opacity:1;" d="M 1149.359375 338.375 C 1094.574219 333.378906 1037.996094 342.121094 995.808594 364.175781 C 926.566406 400.378906 905.949219 463.9375 890.109375 532.3125 C 858 683.773438 865.585938 827.367188 863.082031 981.636719 C 861.320312 1090.03125 864.585938 1199.148438 862.820312 1309 C 861.429688 1395.484375 874.742188 1516.363281 939.925781 1584.441406 C 1015.484375 1662.59375 1163.382812 1696.898438 1255.722656 1623.46875 C 1347.65625 1550.363281 1373.1875 1405.121094 1373.25 1294.625 C 1381.921875 1075.648438 1400.773438 856.113281 1384.242188 642.949219 C 1373.476562 504.140625 1323.988281 354.304688 1149.359375 338.375 Z M 1149.359375 338.375 "/><path style=" stroke:none;fill-rule:nonzero;fill:#48a157;fill-opacity:1;" d="M 1098.007812 1661.6875 C 1107.710938 1662.980469 1117.445312 1663.746094 1127.160156 1663.925781 C 1127.132812 1662.136719 1127.585938 1660.144531 1128.703125 1657.878906 C 1134.09375 1646.917969 1140.902344 1637.085938 1143.398438 1624.894531 C 1148.988281 1597.574219 1128.96875 1580.09375 1113.207031 1561.171875 C 1094.707031 1538.960938 1129.359375 1520.324219 1142.613281 1506.152344 C 1167.945312 1479.0625 1139.339844 1448.480469 1132.667969 1420.375 C 1127.8125 1399.917969 1133.371094 1376.550781 1144.347656 1359.054688 C 1154.070312 1343.558594 1163.859375 1331.863281 1160.507812 1312.210938 C 1154.269531 1275.582031 1116.773438 1249.5625 1125.40625 1209.78125 C 1129.195312 1192.3125 1142.117188 1178.378906 1148.863281 1162.042969 C 1154.5625 1148.234375 1154.582031 1134.070312 1148.378906 1120.394531 C 1140.925781 1103.949219 1126.027344 1091.695312 1121.96875 1073.777344 C 1118.152344 1056.894531 1136.300781 1038.15625 1144.984375 1025.902344 C 1163.53125 999.734375 1145.402344 979.027344 1132.300781 956.425781 C 1114.496094 925.699219 1144.828125 899.839844 1154.910156 872.632812 C 1160.097656 858.625 1160.019531 844.429688 1155.441406 830.253906 C 1150.886719 816.136719 1141.464844 804.214844 1136.714844 790.226562 C 1132.003906 776.359375 1139.226562 764.199219 1146.292969 752.703125 C 1154.476562 739.386719 1163.78125 726.085938 1165.792969 710.207031 C 1167.585938 696.070312 1161.832031 683.269531 1152.394531 672.996094 C 1140.171875 659.6875 1124.324219 655.523438 1122.671875 635.140625 C 1120.175781 604.28125 1148.882812 586.5625 1150.28125 557.519531 C 1151.050781 541.476562 1144.09375 528.003906 1134.984375 515.308594 C 1126.863281 503.996094 1115.6875 493.417969 1116.382812 478.617188 C 1117.910156 446.339844 1164.519531 423.472656 1141.253906 388.699219 C 1137.515625 383.109375 1132.214844 378.890625 1127.1875 374.539062 C 1119.242188 367.667969 1117.464844 357.742188 1118.921875 347.558594 C 1119.4375 343.960938 1120.332031 340.457031 1121.535156 337.046875 C 1111.71875 336.980469 1101.945312 337.359375 1092.28125 338.164062 C 1089.867188 349.40625 1089.796875 361.117188 1093.054688 372.925781 C 1097.363281 388.570312 1110.285156 393.261719 1118.519531 405.574219 C 1122.363281 411.316406 1114.40625 421.210938 1111.503906 425.484375 C 1105.652344 434.101562 1100.246094 442.085938 1095.769531 451.527344 C 1089.207031 465.355469 1086.175781 479.816406 1089.613281 494.871094 C 1092.914062 509.328125 1104.566406 521.3125 1112.945312 532.976562 C 1122.050781 545.664062 1124.59375 555.855469 1116.765625 569.460938 C 1109.433594 582.195312 1101.261719 593.429688 1097.355469 607.863281 C 1093.199219 623.238281 1093.113281 639.980469 1097.914062 655.175781 C 1103.074219 671.507812 1117.398438 680.171875 1129.746094 690.574219 C 1142.4375 701.269531 1136.925781 713.253906 1129.824219 725.507812 C 1121.957031 739.085938 1112.398438 751.632812 1108.445312 767.085938 C 1104.953125 780.71875 1107.480469 794.722656 1113.101562 807.351562 C 1118.933594 820.460938 1128.910156 833.0625 1130.609375 847.648438 C 1132.300781 862.191406 1122.179688 875.527344 1115.0625 887.28125 C 1106.496094 901.425781 1100.195312 915.539062 1098.382812 932.078125 C 1096.808594 946.421875 1102.390625 961.339844 1109.445312 973.507812 C 1114.007812 981.382812 1126.519531 992.554688 1124.792969 1002.507812 C 1123.4375 1010.296875 1116.476562 1016.832031 1112.058594 1023.019531 C 1106.929688 1030.203125 1102.511719 1037.765625 1099.023438 1045.867188 C 1092.503906 1061.007812 1091.890625 1076.78125 1098.054688 1092.136719 C 1104.714844 1108.722656 1119.777344 1120.589844 1124.625 1137.902344 C 1128.441406 1151.523438 1112.824219 1169.601562 1106.542969 1180.277344 C 1085.898438 1215.335938 1098.007812 1253.375 1117.875 1285.203125 C 1126.238281 1298.601562 1138.445312 1316.175781 1129.183594 1331.671875 C 1124.78125 1339.042969 1119.175781 1345.453125 1115.042969 1353.042969 C 1109.59375 1363.058594 1106.5625 1374.828125 1104.519531 1385.945312 C 1101.007812 1405.046875 1103.316406 1424.433594 1109.65625 1442.664062 C 1113.566406 1453.910156 1130.402344 1473.140625 1123.273438 1485.210938 C 1117.960938 1494.207031 1105.726562 1500.863281 1098.429688 1508.28125 C 1087.660156 1519.222656 1080.015625 1532.242188 1078.988281 1547.71875 C 1077.320312 1572.804688 1102.910156 1587.371094 1113.894531 1606.640625 C 1122.367188 1621.503906 1104.988281 1640.136719 1099.9375 1653.539062 C 1098.882812 1656.339844 1098.265625 1659.054688 1098.007812 1661.6875 Z M 1098.007812 1661.6875 "/><path style=" stroke:none;fill-rule:nonzero;fill:#48a157;fill-opacity:1;" d="M 1056.023438 1639.5 C 1054.0625 1621.164062 1062.8125 1605.066406 1053.902344 1586.988281 C 1048.097656 1575.207031 1039.175781 1566.996094 1028.542969 1559.550781 C 1019.871094 1553.484375 1009.179688 1548.980469 1003.542969 1539.597656 C 997.109375 1528.882812 1004.34375 1511.324219 1007.585938 1500.621094 C 1011.652344 1487.210938 1014.238281 1474.730469 1011.058594 1460.816406 C 1007.164062 1443.761719 992.757812 1431.59375 985.199219 1416.355469 C 976.105469 1398.019531 981.183594 1376.203125 987.054688 1357.875 C 991.824219 1342.988281 996.484375 1327.046875 993.378906 1311.308594 C 989.632812 1292.335938 976.570312 1279.175781 966.335938 1263.507812 C 944.578125 1230.203125 984.351562 1197.5625 980.015625 1162.226562 C 976.910156 1136.929688 949.96875 1122.425781 951.074219 1096.695312 C 951.707031 1082.019531 963.390625 1067.171875 969.910156 1054.578125 C 977.691406 1039.535156 981.6875 1024.09375 979.175781 1007.15625 C 974.113281 973.058594 946.417969 943.574219 963.996094 908.914062 C 977.65625 881.972656 1005.613281 856.144531 993.554688 823.324219 C 986.5 804.121094 955.1875 783.292969 965.25 760.976562 C 970.839844 748.578125 981.46875 739.347656 986.582031 726.574219 C 992.285156 712.3125 990.675781 697.304688 982.597656 684.328125 C 976.09375 673.890625 963.351562 666.835938 958.609375 655.441406 C 954.0625 644.523438 960.335938 632.515625 966.265625 623.609375 C 978.902344 604.609375 997.722656 590.933594 1004.777344 568.367188 C 1008.15625 557.554688 1006.621094 545.5 1002.339844 535.234375 C 994.34375 516.070312 985.9375 502.96875 993.117188 481.683594 C 998.605469 465.421875 1014.707031 454.269531 1024.859375 441.011719 C 1035.660156 426.914062 1034.304688 408.460938 1028.007812 392.914062 C 1022.914062 380.34375 1016.625 370.808594 1023.324219 357.472656 C 1024.535156 355.054688 1026.074219 352.875 1027.78125 350.855469 C 1016.472656 354.5625 1005.730469 358.988281 995.808594 364.175781 C 994.394531 364.914062 993.039062 365.679688 991.667969 366.441406 C 991.550781 367.484375 991.390625 368.503906 991.324219 369.566406 C 990.285156 386.71875 1004.527344 400.253906 1004.742188 417.015625 C 1004.835938 424.121094 996.96875 430.714844 992.527344 435.277344 C 985.320312 442.691406 978.695312 450.175781 973.046875 458.867188 C 963.855469 473.003906 960.226562 490.644531 961.9375 507.253906 C 962.8125 515.71875 965.183594 523.996094 968.867188 531.671875 C 972.046875 538.292969 977.257812 544.921875 978.148438 552.4375 C 980.5 572.351562 955.644531 590.589844 945.046875 604.824219 C 929.921875 625.140625 922.375 651.925781 937.117188 674.6875 C 943.753906 684.933594 956.453125 692.140625 960.90625 703.632812 C 966.023438 716.824219 950.667969 730.96875 944.097656 740.855469 C 927.113281 766.429688 937.050781 791.382812 954.027344 813.300781 C 960.324219 821.433594 968.105469 829.914062 968.363281 840.714844 C 968.734375 856.394531 951.613281 874.539062 943.796875 887.148438 C 934.96875 901.378906 929.234375 916.683594 928.855469 933.519531 C 928.460938 950.972656 936.214844 967.796875 942.65625 983.574219 C 948.734375 998.453125 954.460938 1013.867188 949.839844 1029.902344 C 945.261719 1045.789062 933.921875 1059.351562 927.964844 1074.785156 C 916.511719 1104.449219 927.136719 1125.933594 944.605469 1149.585938 C 952.84375 1160.742188 953.269531 1170.5 949.265625 1183.671875 C 943.558594 1202.449219 933.535156 1218.121094 930.894531 1237.957031 C 925.765625 1276.472656 972.617188 1296.511719 964.496094 1333.972656 C 960.714844 1351.425781 954.089844 1367.375 952.316406 1385.347656 C 950.476562 1404.011719 955.847656 1422.65625 965.042969 1438.726562 C 972.253906 1451.332031 986.746094 1462.097656 984.253906 1478.222656 C 981.910156 1493.371094 975.148438 1507.347656 973.632812 1522.792969 C 970.839844 1551.296875 987.4375 1566.820312 1009.621094 1580.960938 C 1016.402344 1585.285156 1022.78125 1589.921875 1027.210938 1596.757812 C 1034.300781 1607.703125 1028.535156 1623.636719 1027.671875 1635.566406 C 1027.492188 1638.054688 1027.648438 1640.476562 1027.957031 1642.871094 C 1039.644531 1647.679688 1051.714844 1651.691406 1063.996094 1654.933594 C 1059.738281 1649.867188 1056.570312 1644.613281 1056.023438 1639.5 Z M 1056.023438 1639.5 "/><path style=" stroke:none;fill-rule:nonzero;fill:#48a157;fill-opacity:1;" d="M 1295.347656 1049.902344 C 1290.191406 1029.074219 1292.058594 1007.914062 1297.679688 987.484375 C 1302.058594 971.5625 1306.324219 955.558594 1305.171875 938.90625 C 1303.804688 919.230469 1292.535156 903.148438 1283.609375 886.226562 C 1275.070312 870.03125 1273.195312 856.394531 1281.40625 839.605469 C 1289.75 822.546875 1299.527344 806.789062 1304.585938 788.289062 C 1314.289062 752.820312 1297.863281 719.28125 1284.730469 687.261719 C 1278.328125 671.652344 1275.417969 655.09375 1278.136719 638.28125 C 1280.917969 621.089844 1290.109375 605.308594 1294.90625 588.652344 C 1304.519531 555.273438 1290.570312 527.734375 1268.640625 503.46875 C 1259.628906 493.496094 1249.210938 483.773438 1244.5625 470.832031 C 1238.265625 453.3125 1244.429688 433.328125 1246.46875 415.601562 C 1248.726562 395.960938 1246.59375 378.378906 1239.523438 362.71875 C 1223.847656 354.945312 1206.558594 348.734375 1187.492188 344.371094 C 1187.695312 344.558594 1187.878906 344.75 1188.101562 344.933594 C 1198.460938 353.546875 1209.648438 361.953125 1214.929688 374.800781 C 1222.738281 393.796875 1218.164062 414.171875 1215.457031 433.695312 C 1213.230469 449.734375 1212.808594 466.074219 1218.359375 481.523438 C 1223.464844 495.734375 1233.757812 507.296875 1243.785156 518.269531 C 1253.265625 528.648438 1263.308594 538.871094 1267.863281 552.484375 C 1273.679688 569.882812 1265.785156 588.085938 1259.4375 604.109375 C 1246.253906 637.382812 1246.214844 668.765625 1260.304688 701.789062 C 1267.167969 717.867188 1273.613281 733.496094 1277.671875 750.566406 C 1282.148438 769.375 1276.371094 787.484375 1268.167969 804.292969 C 1260.332031 820.355469 1249.71875 835.222656 1247.660156 853.421875 C 1245.738281 870.433594 1251.589844 885.589844 1259.136719 900.53125 C 1267.679688 917.449219 1277.933594 930.980469 1276.925781 950.730469 C 1275.957031 969.851562 1267.109375 988.234375 1264.8125 1007.296875 C 1262.613281 1025.539062 1264.742188 1044.210938 1269.136719 1061.960938 C 1274.195312 1082.402344 1287.410156 1099.710938 1291.820312 1120.113281 C 1295.679688 1137.964844 1283.835938 1155.558594 1273.722656 1168.945312 C 1263.761719 1182.136719 1258.703125 1198.746094 1257.101562 1214.953125 C 1254.109375 1245.253906 1276.445312 1281.804688 1260.460938 1310.238281 C 1257.496094 1315.515625 1251.175781 1319.535156 1246.878906 1323.675781 C 1241.804688 1328.570312 1237.546875 1334.625 1233.988281 1340.683594 C 1228.386719 1350.21875 1226.140625 1361.804688 1227.347656 1372.726562 C 1229.722656 1394.253906 1242.957031 1412.128906 1254.605469 1429.644531 C 1263.105469 1442.425781 1275.488281 1459.355469 1267.105469 1474.980469 C 1253.414062 1500.507812 1213.660156 1501.035156 1211.074219 1534.367188 C 1209.648438 1552.714844 1222.042969 1564.292969 1226.265625 1580.886719 C 1228.914062 1591.292969 1216.921875 1596.117188 1209.859375 1600.757812 C 1188.882812 1614.550781 1175.351562 1635.960938 1175.308594 1659.84375 C 1185.277344 1657.886719 1195.058594 1655.195312 1204.589844 1651.761719 C 1206.316406 1643.636719 1210.707031 1636.199219 1217.613281 1629.992188 C 1226.28125 1622.203125 1237.382812 1617.8125 1245.449219 1609.167969 C 1253.679688 1600.351562 1256.207031 1588.277344 1254.160156 1576.621094 C 1252.796875 1568.835938 1249.988281 1562.355469 1246.125 1555.503906 C 1241.574219 1547.441406 1234.46875 1535.996094 1244.207031 1528.664062 C 1255.429688 1520.210938 1267.8125 1514.707031 1278.578125 1505.199219 C 1287.484375 1497.332031 1294.363281 1486.679688 1297.179688 1475.121094 C 1302.230469 1454.394531 1291.367188 1434.28125 1280.472656 1417.464844 C 1270.554688 1402.152344 1255.34375 1385.265625 1255.308594 1366.023438 C 1255.289062 1355.027344 1264.382812 1345.851562 1271.898438 1339.039062 C 1283.957031 1328.105469 1291.105469 1315.867188 1292.894531 1299.464844 C 1296.382812 1267.515625 1279.105469 1235.394531 1287.644531 1204.105469 C 1292.441406 1186.535156 1307.019531 1173.433594 1314.035156 1156.75 C 1321.292969 1139.488281 1322.148438 1121.808594 1316.9375 1103.839844 C 1311.511719 1085.125 1300.109375 1069.132812 1295.347656 1049.902344 Z M 1295.347656 1049.902344 "/><path style=" stroke:none;fill-rule:nonzero;fill:#113c70;fill-opacity:1;" d="M 1149.359375 331.292969 C 1076.949219 325.246094 996.765625 339.59375 944.59375 393.917969 C 897.078125 443.390625 883.722656 519.214844 873.414062 584.222656 C 859.683594 670.84375 857.433594 758.707031 856.863281 846.246094 C 856.273438 937.433594 855.132812 1028.628906 855.699219 1119.816406 C 855.992188 1166.136719 856.398438 1212.457031 856.226562 1258.777344 C 856.089844 1295.863281 854.839844 1332.871094 857.328125 1369.902344 C 861.757812 1435.785156 875.480469 1504.507812 911.996094 1560.589844 C 978.867188 1663.292969 1141.832031 1706.070312 1246.523438 1638.835938 C 1299.886719 1604.566406 1332.4375 1545.035156 1352.121094 1486.480469 C 1372.75 1425.121094 1380.136719 1359.121094 1380.328125 1294.625 C 1380.472656 1247.914062 1384.511719 1200.894531 1386.839844 1154.246094 C 1389.175781 1107.542969 1391.519531 1060.839844 1393.472656 1014.121094 C 1397.347656 921.554688 1399.433594 828.875 1396.433594 736.246094 C 1393.449219 644.257812 1388.898438 548.140625 1347.324219 464.109375 C 1330.113281 429.328125 1305.472656 398.863281 1274.375 375.609375 C 1238.183594 348.554688 1193.828125 335.65625 1149.359375 331.292969 C 1140.265625 330.402344 1140.351562 344.570312 1149.359375 345.457031 C 1212.4375 351.640625 1269.898438 378.523438 1309.070312 429.238281 C 1343.976562 474.421875 1360.96875 531.027344 1370.421875 586.558594 C 1384.003906 666.378906 1383.722656 749.503906 1383.722656 830.230469 C 1383.726562 923.335938 1379.484375 1016.390625 1374.910156 1109.363281 C 1372.609375 1156.144531 1370.1875 1202.914062 1368.070312 1249.707031 C 1366.425781 1286.050781 1366.449219 1322.507812 1363.261719 1358.765625 C 1357.34375 1426.0625 1341.289062 1494.582031 1306.742188 1553.214844 C 1271.347656 1613.285156 1214.699219 1652.289062 1144.414062 1656.605469 C 1077.84375 1660.699219 1008.570312 1635.527344 958.332031 1592.179688 C 905.015625 1546.179688 884.195312 1473.855469 875.140625 1406.453125 C 864.660156 1328.433594 870.691406 1248.222656 870.203125 1169.75 C 869.632812 1077.988281 870.550781 986.277344 870.839844 894.515625 C 871.121094 805.820312 871.429688 717.019531 881.527344 628.777344 C 889.484375 559.230469 900.121094 479.359375 941.113281 420.382812 C 986.621094 354.90625 1074.972656 339.242188 1149.355469 345.457031 C 1158.46875 346.214844 1158.394531 332.046875 1149.359375 331.292969 Z M 1149.359375 331.292969 "/><path style=" stroke:none;fill-rule:nonzero;fill:#fff0a7;fill-opacity:1;" d="M 1067.75 980.378906 C 1067.75 1043.035156 1044.6875 1093.828125 996.53125 1093.828125 C 948.378906 1093.828125 925.316406 1043.035156 925.316406 980.378906 C 925.316406 917.71875 944.984375 866.925781 996.53125 866.925781 C 1048.082031 866.925781 1067.75 917.71875 1067.75 980.378906 Z M 1067.75 980.378906 "/><path style=" stroke:none;fill-rule:nonzero;fill:#113c70;fill-opacity:1;" d="M 1060.664062 980.378906 C 1060.300781 1021.914062 1049.335938 1085.414062 996.53125 1086.746094 C 942.046875 1088.125 932.132812 1016.125 932.425781 976.027344 C 932.734375 933.914062 944.316406 875.214844 996.53125 874.011719 C 1050.921875 872.746094 1060.367188 939.472656 1060.664062 980.378906 C 1060.734375 989.503906 1074.902344 989.511719 1074.835938 980.378906 C 1074.464844 930.035156 1061.011719 864.242188 1000.078125 859.925781 C 936.492188 855.421875 919.375 926.484375 918.261719 976.023438 C 917.136719 1026.136719 932.515625 1096.144531 993.136719 1100.820312 C 1056.820312 1105.730469 1074.410156 1028.898438 1074.839844 980.378906 C 1074.914062 971.238281 1060.746094 971.25 1060.664062 980.378906 Z M 1060.664062 980.378906 "/><path style=" stroke:none;fill-rule:nonzero;fill:#113c70;fill-opacity:1;" d="M 996.53125 980.378906 L 1041.464844 1013.101562 C 1035.167969 1039.441406 1020.34375 1057.679688 996.53125 1057.679688 C 963.722656 1057.679688 948.011719 1023.066406 948.011719 980.378906 C 948.011719 937.6875 961.410156 903.074219 996.53125 903.074219 C 1021.96875 903.074219 1036.011719 921.226562 1041.820312 947.453125 Z M 996.53125 980.378906 "/><path style=" stroke:none;fill-rule:nonzero;fill:#113c70;fill-opacity:1;" d="M 1049.722656 812.242188 C 1017.703125 801.609375 985.683594 790.972656 953.664062 780.339844 C 927.578125 771.675781 916.484375 812.710938 942.363281 821.304688 C 974.382812 831.9375 1006.402344 842.574219 1038.421875 853.207031 C 1064.507812 861.875 1075.601562 820.839844 1049.722656 812.242188 Z M 1049.722656 812.242188 "/><path style=" stroke:none;fill-rule:nonzero;fill:#113c70;fill-opacity:1;" d="M 1198.289062 853.210938 C 1230.308594 842.578125 1262.332031 831.941406 1294.347656 821.308594 C 1320.226562 812.710938 1309.136719 771.675781 1283.050781 780.34375 C 1251.03125 790.976562 1219.007812 801.613281 1186.988281 812.246094 C 1161.113281 820.839844 1172.203125 861.875 1198.289062 853.210938 Z M 1198.289062 853.210938 "/><path style=" stroke:none;fill-rule:nonzero;fill:#113c70;fill-opacity:1;" d="M 1286.613281 904.445312 C 1248.832031 923.640625 1211.050781 942.839844 1173.269531 962.03125 C 1159.410156 969.078125 1159.410156 991.675781 1173.269531 998.71875 C 1211.050781 1017.914062 1248.832031 1037.109375 1286.613281 1056.304688 C 1310.988281 1068.691406 1332.507812 1032.039062 1308.066406 1019.621094 C 1270.285156 1000.425781 1232.503906 981.226562 1194.722656 962.03125 C 1194.722656 974.261719 1194.722656 986.488281 1194.722656 998.71875 C 1232.503906 979.523438 1270.285156 960.324219 1308.066406 941.128906 C 1332.507812 928.710938 1310.988281 892.0625 1286.613281 904.445312 Z M 1286.613281 904.445312 "/><path style=" stroke:none;fill-rule:nonzero;fill:#fff0a7;fill-opacity:1;" d="M 969.964844 900.585938 C 940.691406 900.585938 940.691406 945.957031 969.964844 945.957031 C 999.238281 945.957031 999.238281 900.585938 969.964844 900.585938 Z M 969.964844 900.585938 "/><path style=" stroke:none;fill-rule:nonzero;fill:#d152a4;fill-opacity:1;" d="M 1059.292969 1141.347656 C 1118.207031 1156.976562 1180.789062 1150.851562 1216.472656 1096.183594 C 1231.496094 1073.164062 1194.679688 1051.898438 1179.769531 1074.742188 C 1155.160156 1112.445312 1109.65625 1110.75 1070.589844 1100.382812 C 1044.066406 1093.347656 1032.824219 1134.328125 1059.292969 1141.347656 Z M 1059.292969 1141.347656 "/><path style=" stroke:none;fill-rule:nonzero;fill:#113c70;fill-opacity:1;" d="M 1057.410156 1148.179688 C 1102.605469 1159.769531 1152.398438 1160.265625 1191.910156 1132.367188 C 1206.6875 1121.929688 1226.210938 1103.84375 1227.078125 1084.554688 C 1227.828125 1067.882812 1209.191406 1057.148438 1194.601562 1058.035156 C 1187.277344 1058.484375 1180.089844 1062.636719 1175.714844 1068.433594 C 1167.644531 1079.128906 1160.03125 1087.371094 1147.835938 1093.371094 C 1125 1104.601562 1095.949219 1099.585938 1072.472656 1093.554688 C 1037.496094 1084.570312 1023.390625 1136.914062 1057.410156 1148.179688 C 1066.109375 1151.058594 1069.808594 1137.382812 1061.175781 1134.523438 C 1047.972656 1130.152344 1048.324219 1111.601562 1061.398438 1107.074219 C 1067.640625 1104.914062 1077.382812 1109.375 1083.605469 1110.628906 C 1091.726562 1112.269531 1100.003906 1113.191406 1108.269531 1113.703125 C 1136.6875 1115.460938 1166.757812 1105.957031 1183.519531 1081.734375 C 1188.886719 1073.984375 1195.210938 1069.597656 1204.550781 1073.710938 C 1212.707031 1077.300781 1214.460938 1085.269531 1210.355469 1092.609375 C 1201.175781 1109.019531 1184.667969 1121.722656 1168.234375 1130.117188 C 1135.539062 1146.816406 1095.511719 1143.324219 1061.175781 1134.519531 C 1052.316406 1132.25 1048.566406 1145.910156 1057.410156 1148.179688 Z M 1057.410156 1148.179688 "/></g></svg>